<svg xmlns="http://www.w3.org/2000/svg" xml:space="preserve" id="Layer_1" width="350px" height="225px" x="0" y="0" version="1.1"><pattern id="Polka_Dot_Pattern" width="69" height="69" y="287" overflow="visible" patternUnits="userSpaceOnUse" viewBox="2.125 -70.896 69 69"><path fill="none" d="M71.125-1.896h-69v-69h69z"/><path fill="#F7BC60" d="M71.125-1.896h-69v-69h69z"/><g fill="#FFF"><path d="M61.772-71.653a.247.247 0 0 1-.026.19c-.053.101-.112.063-.165.128a.638.638 0 0 0-.079.362c-.169.058-.01.227-.015.35-.002.05-.041.105-.045.161a.764.764 0 0 0 .068.37c.097.198.268.413.435.544.19.148.365.572.608.631.177.042.384-.104.543-.143.18-.043.397.01.571-.053.222-.079.127-.337.288-.45.104-.074.287-.01.406-.051a.607.607 0 0 0 .376-.46c.016-.082.01-.145.039-.221.039-.103.111-.16.09-.293-.01-.062-.052-.12-.064-.187-.022-.114.002-.224 0-.337-.003-.2.017-.379-.078-.55-.38-.688-1.236-.929-1.975-.789-.18.034-.287.126-.442.207-.17.088-.139.166-.318.224-.081.026-.216.124-.215.224.001.115.005.051.012.169-.021.011-.021-.005-.03-.025M54.105-71.653a.247.247 0 0 1-.026.19c-.053.101-.112.063-.165.128a.638.638 0 0 0-.079.362c-.169.058-.01.227-.015.35-.002.05-.041.105-.045.161a.764.764 0 0 0 .068.37c.097.198.268.413.435.544.19.148.365.572.608.631.177.042.384-.104.543-.143.18-.043.397.01.571-.053.222-.079.127-.337.288-.45.104-.074.287-.01.406-.051a.607.607 0 0 0 .376-.46c.016-.082.01-.145.039-.221.039-.103.111-.16.09-.293-.01-.062-.052-.12-.064-.187-.022-.114.002-.224 0-.337-.003-.2.017-.379-.078-.55-.38-.688-1.236-.929-1.975-.789-.18.034-.287.126-.442.207-.17.088-.139.166-.318.224-.081.026-.216.124-.215.224.001.115.005.051.012.169-.021.011-.021-.005-.03-.025M46.439-71.653a.247.247 0 0 1-.026.19c-.053.101-.112.063-.165.128a.638.638 0 0 0-.079.362c-.169.058-.01.227-.015.35-.002.05-.041.105-.045.161a.764.764 0 0 0 .068.37c.097.198.268.413.435.544.19.148.365.572.608.631.177.042.384-.104.543-.143.18-.043.397.01.571-.053.222-.079.127-.337.288-.45.104-.074.287-.01.406-.051a.607.607 0 0 0 .376-.46c.016-.082.01-.145.039-.221.039-.103.111-.16.09-.293-.01-.062-.052-.12-.064-.187-.022-.114.002-.224 0-.337-.003-.2.017-.379-.078-.55-.38-.688-1.236-.929-1.975-.789-.18.034-.287.126-.442.207-.17.088-.139.166-.318.224-.081.026-.216.124-.215.224.001.115.005.051.012.169-.021.011-.021-.005-.03-.025M38.772-71.653a.247.247 0 0 1-.026.19c-.053.101-.112.063-.165.128a.638.638 0 0 0-.079.362c-.169.058-.01.227-.015.35-.002.05-.041.105-.045.161a.764.764 0 0 0 .068.37c.097.198.268.413.435.544.19.148.365.572.608.631.177.042.384-.104.543-.143.18-.043.397.01.571-.053.222-.079.127-.337.288-.45.104-.074.287-.01.406-.051a.607.607 0 0 0 .376-.46c.016-.082.01-.145.039-.221.039-.103.111-.16.09-.293-.01-.062-.052-.12-.064-.187-.022-.114.002-.224 0-.337-.003-.2.017-.379-.078-.55-.38-.688-1.236-.929-1.975-.789-.18.034-.287.126-.442.207-.17.088-.139.166-.318.224-.081.026-.216.124-.215.224.001.115.005.051.012.169-.021.011-.021-.005-.03-.025M31.105-71.653a.247.247 0 0 1-.026.19c-.053.101-.112.063-.165.128a.638.638 0 0 0-.079.362c-.169.058-.01.227-.015.35-.002.05-.041.105-.045.161a.764.764 0 0 0 .068.37c.097.198.268.413.435.544.19.148.365.572.608.631.177.042.384-.104.543-.143.18-.043.397.01.571-.053.222-.079.127-.337.288-.45.104-.074.287-.01.406-.051a.607.607 0 0 0 .376-.46c.016-.082.01-.145.039-.221.039-.103.111-.16.09-.293-.01-.062-.052-.12-.064-.187-.022-.114.002-.224 0-.337-.003-.2.017-.379-.078-.55-.38-.688-1.236-.929-1.975-.789-.18.034-.287.126-.442.207-.17.088-.139.166-.318.224-.081.026-.216.124-.215.224.001.115.005.051.012.169-.021.011-.021-.005-.03-.025M23.439-71.653a.247.247 0 0 1-.026.19c-.053.101-.112.063-.165.128a.638.638 0 0 0-.079.362c-.169.058-.01.227-.015.35-.002.05-.041.105-.045.161a.764.764 0 0 0 .068.37c.097.198.268.413.435.544.19.148.365.572.608.631.177.042.384-.104.543-.143.18-.043.397.01.571-.053.222-.079.127-.337.288-.45.104-.074.287-.01.406-.051a.607.607 0 0 0 .376-.46c.016-.082.01-.145.039-.221.039-.103.111-.16.09-.293-.01-.062-.052-.12-.064-.187-.022-.114.002-.224 0-.337-.003-.2.017-.379-.078-.55-.38-.688-1.236-.929-1.975-.789-.18.034-.287.126-.442.207-.17.088-.139.166-.318.224-.081.026-.216.124-.215.224.001.115.005.051.012.169-.021.011-.021-.005-.03-.025M15.772-71.653a.247.247 0 0 1-.026.19c-.053.101-.112.063-.165.128a.638.638 0 0 0-.079.362c-.169.058-.01.227-.015.35-.002.05-.041.105-.045.161a.764.764 0 0 0 .068.37c.097.198.268.413.435.544.19.148.365.572.608.631.177.042.384-.104.543-.143.18-.043.397.01.571-.053.222-.079.127-.337.288-.45.104-.074.287-.01.406-.051a.607.607 0 0 0 .376-.46c.016-.082.01-.145.039-.221.039-.103.111-.16.09-.293-.01-.062-.052-.12-.064-.187-.022-.114.002-.224 0-.337-.003-.2.017-.379-.078-.55-.38-.688-1.236-.929-1.975-.789-.18.034-.287.126-.442.207-.17.088-.139.166-.318.224-.081.026-.216.124-.215.224.001.115.005.051.012.169-.021.011-.021-.005-.03-.025M8.105-71.653a.247.247 0 0 1-.026.19c-.053.101-.112.063-.165.128a.638.638 0 0 0-.079.362c-.169.058-.01.227-.015.35-.002.05-.041.105-.045.161a.764.764 0 0 0 .068.37c.097.198.268.413.435.544.19.148.365.572.608.631.177.042.384-.104.543-.143.18-.043.397.01.571-.053.222-.079.127-.337.288-.45.104-.074.287-.01.406-.051a.607.607 0 0 0 .376-.46c.016-.082.01-.145.039-.221.039-.103.111-.16.09-.293-.01-.062-.052-.12-.064-.187-.022-.114.002-.224 0-.337-.003-.2.017-.379-.078-.55-.38-.688-1.236-.929-1.975-.789-.18.034-.287.126-.442.207-.17.088-.139.166-.318.224-.081.026-.216.124-.215.224.001.115.005.051.012.169-.021.011-.021-.005-.03-.025M.439-71.653a.242.242 0 0 1-.026.19c-.052.101-.113.063-.165.128a.63.63 0 0 0-.079.362c-.169.058-.01.227-.015.35-.002.05-.041.105-.045.161a.764.764 0 0 0 .068.37c.097.198.268.413.435.544.19.148.365.572.608.631.177.042.384-.104.543-.143.18-.043.397.01.571-.053.222-.079.127-.337.288-.45.104-.074.287-.01.406-.051.2-.07.339-.263.376-.46.016-.082.01-.145.039-.221.038-.103.111-.16.09-.293-.01-.062-.051-.12-.064-.187-.021-.114.002-.224 0-.337-.003-.2.017-.379-.078-.55-.38-.688-1.236-.929-1.975-.789-.18.034-.287.126-.442.207-.17.088-.139.166-.318.224-.081.026-.215.124-.215.224.002.115.005.051.012.169-.021.011-.021-.005-.03-.025"/></g><path fill="#FFF" d="M69.439-71.653a.242.242 0 0 1-.026.19c-.052.101-.113.063-.165.128a.63.63 0 0 0-.079.362c-.169.058-.01.227-.015.35-.002.05-.041.105-.045.161a.764.764 0 0 0 .068.37c.097.198.268.413.435.544.19.148.365.572.608.631.177.042.384-.104.543-.143.18-.043.397.01.571-.053.222-.079.127-.337.288-.45.104-.074.287-.01.406-.051.2-.07.339-.263.376-.46.016-.082.01-.145.039-.221.038-.103.111-.16.09-.293-.01-.062-.051-.12-.064-.187-.021-.114.002-.224 0-.337-.003-.2.017-.379-.078-.55-.38-.688-1.236-.929-1.975-.789-.18.034-.287.126-.442.207-.17.088-.139.166-.318.224-.081.026-.215.124-.215.224.002.115.005.051.012.169-.021.011-.021-.005-.03-.025M.495-71.653a.242.242 0 0 1-.026.19c-.052.101-.113.063-.165.128a.63.63 0 0 0-.079.362c-.169.058-.01.227-.015.35-.002.05-.041.105-.045.161a.764.764 0 0 0 .068.37c.097.198.268.413.435.544.19.148.365.572.608.631.177.042.384-.104.543-.143.18-.043.397.01.571-.053.222-.079.127-.337.288-.45.104-.074.287-.01.406-.051.2-.07.339-.263.376-.46.016-.082.01-.145.039-.221.038-.103.111-.16.09-.293-.01-.062-.051-.12-.064-.187-.021-.114.002-.224 0-.337-.003-.2.017-.379-.078-.55-.38-.688-1.236-.929-1.975-.789-.18.034-.287.126-.442.207-.17.088-.139.166-.318.224-.081.026-.215.124-.215.224.003.116.006.052.013.17-.021.011-.021-.005-.03-.025"/><g fill="#FFF"><path d="M69.439-64.001a.247.247 0 0 1-.026.19c-.053.101-.112.063-.165.128a.638.638 0 0 0-.079.362c-.169.058-.01.227-.015.35-.002.05-.041.105-.045.161a.764.764 0 0 0 .068.37c.097.198.268.413.435.544.19.148.365.572.608.631.177.042.384-.104.543-.143.18-.043.397.01.571-.053.222-.079.127-.337.288-.45.104-.074.287-.01.406-.051a.607.607 0 0 0 .376-.46c.016-.082.01-.145.039-.221.039-.103.111-.16.09-.293-.01-.062-.052-.12-.064-.187-.022-.114.002-.224 0-.337-.003-.2.017-.379-.078-.55-.38-.688-1.236-.929-1.975-.789-.18.034-.287.126-.442.207-.17.088-.139.166-.318.224-.081.026-.216.124-.215.224.001.115.005.051.012.169-.021.011-.021-.005-.03-.025M61.778-64.001a.247.247 0 0 1-.026.19c-.053.101-.112.063-.165.128a.638.638 0 0 0-.079.362c-.169.058-.009.227-.015.35-.002.05-.041.105-.045.161a.764.764 0 0 0 .068.37c.097.198.268.413.435.544.19.148.365.572.608.631.177.042.384-.104.543-.143.18-.043.397.01.571-.053.222-.079.127-.337.288-.45.104-.074.287-.01.406-.051a.607.607 0 0 0 .376-.46c.016-.082.01-.145.039-.221.039-.103.111-.16.09-.293-.01-.062-.052-.12-.064-.187-.022-.114.002-.224 0-.337-.003-.2.017-.379-.078-.55-.38-.688-1.236-.929-1.975-.789-.18.034-.287.126-.442.207-.17.088-.139.166-.318.224-.081.026-.216.124-.215.224.001.115.005.051.012.169-.021.011-.021-.005-.03-.025M54.118-64.001a.247.247 0 0 1-.026.19c-.053.101-.112.063-.165.128a.638.638 0 0 0-.079.362c-.169.058-.009.227-.015.35-.002.05-.041.105-.045.161a.764.764 0 0 0 .068.37c.097.198.268.413.435.544.19.148.365.572.608.631.177.042.384-.104.543-.143.18-.043.397.01.571-.053.222-.079.127-.337.288-.45.104-.074.287-.01.406-.051a.607.607 0 0 0 .376-.46c.016-.082.01-.145.039-.221.039-.103.111-.16.09-.293-.01-.062-.052-.12-.064-.187-.022-.114.002-.224 0-.337-.003-.2.017-.379-.078-.55-.38-.688-1.236-.929-1.975-.789-.18.034-.287.126-.442.207-.17.088-.139.166-.318.224-.081.026-.216.124-.215.224.001.115.005.051.012.169-.021.011-.021-.005-.03-.025M46.458-64.001a.247.247 0 0 1-.026.19c-.053.101-.112.063-.165.128a.638.638 0 0 0-.079.362c-.169.058-.009.227-.015.35-.002.05-.041.105-.045.161a.764.764 0 0 0 .068.37c.097.198.268.413.435.544.19.148.365.572.608.631.177.042.384-.104.543-.143.18-.043.397.01.571-.053.222-.079.127-.337.288-.45.104-.074.287-.01.406-.051a.607.607 0 0 0 .376-.46c.016-.082.01-.145.039-.221.039-.103.111-.16.09-.293-.01-.062-.052-.12-.064-.187-.022-.114.002-.224 0-.337-.003-.2.017-.379-.078-.55-.38-.688-1.236-.929-1.975-.789-.18.034-.287.126-.442.207-.17.088-.139.166-.318.224-.081.026-.216.124-.215.224.001.115.005.051.012.169-.021.011-.021-.005-.03-.025M38.797-64.001a.247.247 0 0 1-.026.19c-.053.101-.112.063-.165.128a.638.638 0 0 0-.079.362c-.169.058-.009.227-.015.35-.002.05-.041.105-.045.161a.764.764 0 0 0 .068.37c.097.198.268.413.435.544.19.148.365.572.608.631.177.042.384-.104.543-.143.18-.043.397.01.571-.053.222-.079.127-.337.288-.45.104-.074.287-.01.406-.051a.607.607 0 0 0 .376-.46c.016-.082.01-.145.039-.221.039-.103.111-.16.09-.293-.01-.062-.052-.12-.064-.187-.022-.114.002-.224 0-.337-.003-.2.017-.379-.078-.55-.38-.688-1.236-.929-1.975-.789-.18.034-.287.126-.442.207-.17.088-.139.166-.318.224-.081.026-.216.124-.215.224.001.115.005.051.012.169-.021.011-.021-.005-.03-.025M31.137-64.001a.247.247 0 0 1-.026.19c-.053.101-.112.063-.165.128a.638.638 0 0 0-.079.362c-.169.058-.009.227-.015.35-.002.05-.041.105-.045.161a.764.764 0 0 0 .068.37c.097.198.268.413.435.544.19.148.365.572.608.631.177.042.384-.104.543-.143.18-.043.397.01.571-.053.222-.079.127-.337.288-.45.104-.074.287-.01.406-.051a.607.607 0 0 0 .376-.46c.016-.082.01-.145.039-.221.039-.103.111-.16.09-.293-.01-.062-.052-.12-.064-.187-.022-.114.002-.224 0-.337-.003-.2.017-.379-.078-.55-.38-.688-1.236-.929-1.975-.789-.18.034-.287.126-.442.207-.17.088-.139.166-.318.224-.081.026-.216.124-.215.224.001.115.005.051.012.169-.021.011-.021-.005-.03-.025M23.477-64.001a.247.247 0 0 1-.026.19c-.053.101-.112.063-.165.128a.638.638 0 0 0-.079.362c-.169.058-.009.227-.015.35-.002.05-.041.105-.045.161a.764.764 0 0 0 .068.37c.097.198.268.413.435.544.19.148.365.572.608.631.177.042.384-.104.543-.143.18-.043.397.01.571-.053.222-.079.127-.337.288-.45.104-.074.287-.01.406-.051a.607.607 0 0 0 .376-.46c.016-.082.01-.145.039-.221.039-.103.111-.16.09-.293-.01-.062-.052-.12-.064-.187-.022-.114.002-.224 0-.337-.003-.2.017-.379-.078-.55-.38-.688-1.236-.929-1.975-.789-.18.034-.287.126-.442.207-.17.088-.139.166-.318.224-.081.026-.216.124-.215.224.001.115.005.051.012.169-.021.011-.021-.005-.03-.025M15.816-64.001a.247.247 0 0 1-.026.19c-.053.101-.112.063-.165.128a.638.638 0 0 0-.079.362c-.169.058-.009.227-.015.35-.002.05-.041.105-.045.161a.764.764 0 0 0 .068.37c.097.198.268.413.435.544.19.148.365.572.608.631.177.042.384-.104.543-.143.18-.043.397.01.571-.053.222-.079.127-.337.288-.45.104-.074.287-.01.406-.051a.607.607 0 0 0 .376-.46c.016-.082.01-.145.039-.221.039-.103.111-.16.09-.293-.01-.062-.052-.12-.064-.187-.022-.114.002-.224 0-.337-.003-.2.017-.379-.078-.55-.38-.688-1.236-.929-1.975-.789-.18.034-.287.126-.442.207-.17.088-.139.166-.318.224-.081.026-.216.124-.215.224.001.115.005.051.012.169-.021.011-.021-.005-.03-.025M8.156-64.001a.247.247 0 0 1-.026.19c-.053.101-.112.063-.165.128a.638.638 0 0 0-.079.362c-.169.058-.009.227-.015.35-.002.05-.041.105-.045.161a.764.764 0 0 0 .068.37c.097.198.268.413.435.544.19.148.365.572.608.631.177.042.384-.104.543-.143.18-.043.397.01.571-.053.222-.079.127-.337.288-.45.104-.074.287-.01.406-.051a.607.607 0 0 0 .376-.46c.016-.082.01-.145.039-.221.039-.103.111-.16.09-.293-.01-.062-.052-.12-.064-.187-.022-.114.002-.224 0-.337-.003-.2.017-.379-.078-.55-.38-.688-1.236-.929-1.975-.789-.18.034-.287.126-.442.207-.17.088-.139.166-.318.224-.081.026-.216.124-.215.224.001.115.005.051.012.169-.021.011-.021-.005-.03-.025M.495-64.001a.247.247 0 0 1-.026.19c-.053.101-.112.063-.165.128a.638.638 0 0 0-.079.362c-.169.058-.01.227-.015.35-.002.05-.041.105-.045.161a.764.764 0 0 0 .068.37c.097.198.268.413.435.544.19.148.365.572.608.631.177.042.384-.104.543-.143.181-.042.398.011.572-.052.222-.079.127-.337.288-.45.104-.074.287-.01.406-.051a.607.607 0 0 0 .376-.46c.016-.082.01-.145.039-.221.039-.103.111-.16.09-.293-.01-.062-.052-.12-.064-.187-.022-.114.002-.224 0-.337-.003-.2.017-.379-.078-.55-.38-.688-1.236-.929-1.975-.789-.18.034-.287.126-.442.207-.17.088-.139.166-.318.224-.081.026-.216.124-.215.224.001.115.005.051.012.169-.021.011-.021-.005-.03-.025"/><g><path d="M69.439-56.348a.247.247 0 0 1-.026.19c-.053.101-.112.063-.165.128a.638.638 0 0 0-.079.362c-.169.058-.01.227-.015.35-.002.05-.041.105-.045.161a.764.764 0 0 0 .068.37c.097.198.268.413.435.544.19.148.365.572.608.631.177.042.384-.104.543-.143.18-.043.397.01.571-.053.222-.079.127-.337.288-.45.104-.074.287-.01.406-.051a.607.607 0 0 0 .376-.46c.016-.082.01-.145.039-.221.039-.103.111-.16.09-.293-.01-.062-.052-.12-.064-.187-.022-.114.002-.224 0-.337-.003-.2.017-.379-.078-.55-.38-.688-1.236-.929-1.975-.789-.18.034-.287.126-.442.207-.17.088-.139.166-.318.224-.081.026-.216.124-.215.224.001.115.005.051.012.169-.021.011-.021-.005-.03-.025M61.778-56.348a.247.247 0 0 1-.026.19c-.053.101-.112.063-.165.128a.638.638 0 0 0-.079.362c-.169.058-.009.227-.015.35-.002.05-.041.105-.045.161a.764.764 0 0 0 .068.37c.097.198.268.413.435.544.19.148.365.572.608.631.177.042.384-.104.543-.143.18-.043.397.01.571-.053.222-.079.127-.337.288-.45.104-.074.287-.01.406-.051a.607.607 0 0 0 .376-.46c.016-.082.01-.145.039-.221.039-.103.111-.16.09-.293-.01-.062-.052-.12-.064-.187-.022-.114.002-.224 0-.337-.003-.2.017-.379-.078-.55-.38-.688-1.236-.929-1.975-.789-.18.034-.287.126-.442.207-.17.088-.139.166-.318.224-.081.026-.216.124-.215.224.001.115.005.051.012.169-.021.011-.021-.005-.03-.025M54.118-56.348a.247.247 0 0 1-.026.19c-.053.101-.112.063-.165.128a.638.638 0 0 0-.079.362c-.169.058-.009.227-.015.35-.002.05-.041.105-.045.161a.764.764 0 0 0 .068.37c.097.198.268.413.435.544.19.148.365.572.608.631.177.042.384-.104.543-.143.18-.043.397.01.571-.053.222-.079.127-.337.288-.45.104-.074.287-.01.406-.051a.607.607 0 0 0 .376-.46c.016-.082.01-.145.039-.221.039-.103.111-.16.09-.293-.01-.062-.052-.12-.064-.187-.022-.114.002-.224 0-.337-.003-.2.017-.379-.078-.55-.38-.688-1.236-.929-1.975-.789-.18.034-.287.126-.442.207-.17.088-.139.166-.318.224-.081.026-.216.124-.215.224.001.115.005.051.012.169-.021.011-.021-.005-.03-.025M46.458-56.348a.247.247 0 0 1-.026.19c-.053.101-.112.063-.165.128a.638.638 0 0 0-.079.362c-.169.058-.009.227-.015.35-.002.05-.041.105-.045.161a.764.764 0 0 0 .068.37c.097.198.268.413.435.544.19.148.365.572.608.631.177.042.384-.104.543-.143.18-.043.397.01.571-.053.222-.079.127-.337.288-.45.104-.074.287-.01.406-.051a.607.607 0 0 0 .376-.46c.016-.082.01-.145.039-.221.039-.103.111-.16.09-.293-.01-.062-.052-.12-.064-.187-.022-.114.002-.224 0-.337-.003-.2.017-.379-.078-.55-.38-.688-1.236-.929-1.975-.789-.18.034-.287.126-.442.207-.17.088-.139.166-.318.224-.081.026-.216.124-.215.224.001.115.005.051.012.169-.021.011-.021-.005-.03-.025M38.797-56.348a.247.247 0 0 1-.026.19c-.053.101-.112.063-.165.128a.638.638 0 0 0-.079.362c-.169.058-.009.227-.015.35-.002.05-.041.105-.045.161a.764.764 0 0 0 .068.37c.097.198.268.413.435.544.19.148.365.572.608.631.177.042.384-.104.543-.143.18-.043.397.01.571-.053.222-.079.127-.337.288-.45.104-.074.287-.01.406-.051a.607.607 0 0 0 .376-.46c.016-.082.01-.145.039-.221.039-.103.111-.16.09-.293-.01-.062-.052-.12-.064-.187-.022-.114.002-.224 0-.337-.003-.2.017-.379-.078-.55-.38-.688-1.236-.929-1.975-.789-.18.034-.287.126-.442.207-.17.088-.139.166-.318.224-.081.026-.216.124-.215.224.001.115.005.051.012.169-.021.011-.021-.005-.03-.025M31.137-56.348a.247.247 0 0 1-.026.19c-.053.101-.112.063-.165.128a.638.638 0 0 0-.079.362c-.169.058-.009.227-.015.35-.002.05-.041.105-.045.161a.764.764 0 0 0 .068.37c.097.198.268.413.435.544.19.148.365.572.608.631.177.042.384-.104.543-.143.18-.043.397.01.571-.053.222-.079.127-.337.288-.45.104-.074.287-.01.406-.051a.607.607 0 0 0 .376-.46c.016-.082.01-.145.039-.221.039-.103.111-.16.09-.293-.01-.062-.052-.12-.064-.187-.022-.114.002-.224 0-.337-.003-.2.017-.379-.078-.55-.38-.688-1.236-.929-1.975-.789-.18.034-.287.126-.442.207-.17.088-.139.166-.318.224-.081.026-.216.124-.215.224.001.115.005.051.012.169-.021.011-.021-.005-.03-.025M23.477-56.348a.247.247 0 0 1-.026.19c-.053.101-.112.063-.165.128a.638.638 0 0 0-.079.362c-.169.058-.009.227-.015.35-.002.05-.041.105-.045.161a.764.764 0 0 0 .068.37c.097.198.268.413.435.544.19.148.365.572.608.631.177.042.384-.104.543-.143.18-.043.397.01.571-.053.222-.079.127-.337.288-.45.104-.074.287-.01.406-.051a.607.607 0 0 0 .376-.46c.016-.082.01-.145.039-.221.039-.103.111-.16.09-.293-.01-.062-.052-.12-.064-.187-.022-.114.002-.224 0-.337-.003-.2.017-.379-.078-.55-.38-.688-1.236-.929-1.975-.789-.18.034-.287.126-.442.207-.17.088-.139.166-.318.224-.081.026-.216.124-.215.224.001.115.005.051.012.169-.021.011-.021-.005-.03-.025M15.816-56.348a.247.247 0 0 1-.026.19c-.053.101-.112.063-.165.128a.638.638 0 0 0-.079.362c-.169.058-.009.227-.015.35-.002.05-.041.105-.045.161a.764.764 0 0 0 .068.37c.097.198.268.413.435.544.19.148.365.572.608.631.177.042.384-.104.543-.143.18-.043.397.01.571-.053.222-.079.127-.337.288-.45.104-.074.287-.01.406-.051a.607.607 0 0 0 .376-.46c.016-.082.01-.145.039-.221.039-.103.111-.16.09-.293-.01-.062-.052-.12-.064-.187-.022-.114.002-.224 0-.337-.003-.2.017-.379-.078-.55-.38-.688-1.236-.929-1.975-.789-.18.034-.287.126-.442.207-.17.088-.139.166-.318.224-.081.026-.216.124-.215.224.001.115.005.051.012.169-.021.011-.021-.005-.03-.025M8.156-56.348a.247.247 0 0 1-.026.19c-.053.101-.112.063-.165.128a.638.638 0 0 0-.079.362c-.169.058-.009.227-.015.35-.002.05-.041.105-.045.161a.764.764 0 0 0 .068.37c.097.198.268.413.435.544.19.148.365.572.608.631.177.042.384-.104.543-.143.18-.043.397.01.571-.053.222-.079.127-.337.288-.45.104-.074.287-.01.406-.051a.607.607 0 0 0 .376-.46c.016-.082.01-.145.039-.221.039-.103.111-.16.09-.293-.01-.062-.052-.12-.064-.187-.022-.114.002-.224 0-.337-.003-.2.017-.379-.078-.55-.38-.688-1.236-.929-1.975-.789-.18.034-.287.126-.442.207-.17.088-.139.166-.318.224-.081.026-.216.124-.215.224.001.115.005.051.012.169-.021.011-.021-.005-.03-.025M.495-56.348a.247.247 0 0 1-.026.19c-.053.101-.112.063-.165.128a.638.638 0 0 0-.079.362c-.169.058-.01.227-.015.35-.002.05-.041.105-.045.161a.764.764 0 0 0 .068.37c.097.198.268.413.435.544.19.148.365.572.608.631.177.042.384-.104.543-.143.18-.043.397.01.571-.053.222-.079.127-.337.288-.45.104-.074.287-.01.406-.051a.607.607 0 0 0 .376-.46c.016-.082.01-.145.039-.221.039-.103.111-.16.09-.293-.01-.062-.052-.12-.064-.187-.022-.114.002-.224 0-.337-.003-.2.017-.379-.078-.55-.38-.688-1.236-.929-1.975-.789-.18.034-.287.126-.442.207-.17.088-.139.166-.318.224-.081.026-.216.124-.215.224.003.117.006.053.013.171-.021.011-.021-.005-.03-.025"/></g><g><path d="M69.439-48.695a.247.247 0 0 1-.026.19c-.053.101-.112.063-.165.128a.638.638 0 0 0-.079.362c-.169.058-.01.227-.015.35-.002.05-.041.105-.045.161a.764.764 0 0 0 .068.37c.097.198.268.413.435.544.19.148.365.572.608.631.177.042.384-.104.543-.143.18-.043.397.01.571-.053.222-.079.127-.337.288-.45.104-.074.287-.01.406-.051a.607.607 0 0 0 .376-.46c.016-.082.01-.145.039-.221.039-.103.111-.16.09-.293-.01-.062-.052-.12-.064-.187-.022-.114.002-.224 0-.337-.003-.2.017-.379-.078-.55-.38-.688-1.236-.929-1.975-.789-.18.034-.287.126-.442.207-.17.088-.139.166-.318.224-.081.026-.216.124-.215.224.001.115.005.051.012.169-.021.011-.021-.005-.03-.025M61.778-48.695a.247.247 0 0 1-.026.19c-.053.101-.112.063-.165.128a.638.638 0 0 0-.079.362c-.169.058-.009.227-.015.35-.002.05-.041.105-.045.161a.764.764 0 0 0 .068.37c.097.198.268.413.435.544.19.148.365.572.608.631.177.042.384-.104.543-.143.18-.043.397.01.571-.053.222-.079.127-.337.288-.45.104-.074.287-.01.406-.051a.607.607 0 0 0 .376-.46c.016-.082.01-.145.039-.221.039-.103.111-.16.09-.293-.01-.062-.052-.12-.064-.187-.022-.114.002-.224 0-.337-.003-.2.017-.379-.078-.55-.38-.688-1.236-.929-1.975-.789-.18.034-.287.126-.442.207-.17.088-.139.166-.318.224-.081.026-.216.124-.215.224.001.115.005.051.012.169-.021.011-.021-.005-.03-.025M54.118-48.695a.247.247 0 0 1-.026.19c-.053.101-.112.063-.165.128a.638.638 0 0 0-.079.362c-.169.058-.009.227-.015.35-.002.05-.041.105-.045.161a.764.764 0 0 0 .068.37c.097.198.268.413.435.544.19.148.365.572.608.631.177.042.384-.104.543-.143.18-.043.397.01.571-.053.222-.079.127-.337.288-.45.104-.074.287-.01.406-.051a.607.607 0 0 0 .376-.46c.016-.082.01-.145.039-.221.039-.103.111-.16.09-.293-.01-.062-.052-.12-.064-.187-.022-.114.002-.224 0-.337-.003-.2.017-.379-.078-.55-.38-.688-1.236-.929-1.975-.789-.18.034-.287.126-.442.207-.17.088-.139.166-.318.224-.081.026-.216.124-.215.224.001.115.005.051.012.169-.021.011-.021-.005-.03-.025M46.458-48.695a.247.247 0 0 1-.026.19c-.053.101-.112.063-.165.128a.638.638 0 0 0-.079.362c-.169.058-.009.227-.015.35-.002.05-.041.105-.045.161a.764.764 0 0 0 .068.37c.097.198.268.413.435.544.19.148.365.572.608.631.177.042.384-.104.543-.143.18-.043.397.01.571-.053.222-.079.127-.337.288-.45.104-.074.287-.01.406-.051a.607.607 0 0 0 .376-.46c.016-.082.01-.145.039-.221.039-.103.111-.16.09-.293-.01-.062-.052-.12-.064-.187-.022-.114.002-.224 0-.337-.003-.2.017-.379-.078-.55-.38-.688-1.236-.929-1.975-.789-.18.034-.287.126-.442.207-.17.088-.139.166-.318.224-.081.026-.216.124-.215.224.001.115.005.051.012.169-.021.011-.021-.005-.03-.025M38.797-48.695a.247.247 0 0 1-.026.19c-.053.101-.112.063-.165.128a.638.638 0 0 0-.079.362c-.169.058-.009.227-.015.35-.002.05-.041.105-.045.161a.764.764 0 0 0 .068.37c.097.198.268.413.435.544.19.148.365.572.608.631.177.042.384-.104.543-.143.18-.043.397.01.571-.053.222-.079.127-.337.288-.45.104-.074.287-.01.406-.051a.607.607 0 0 0 .376-.46c.016-.082.01-.145.039-.221.039-.103.111-.16.09-.293-.01-.062-.052-.12-.064-.187-.022-.114.002-.224 0-.337-.003-.2.017-.379-.078-.55-.38-.688-1.236-.929-1.975-.789-.18.034-.287.126-.442.207-.17.088-.139.166-.318.224-.081.026-.216.124-.215.224.001.115.005.051.012.169-.021.011-.021-.005-.03-.025M31.137-48.695a.247.247 0 0 1-.026.19c-.053.101-.112.063-.165.128a.638.638 0 0 0-.079.362c-.169.058-.009.227-.015.35-.002.05-.041.105-.045.161a.764.764 0 0 0 .068.37c.097.198.268.413.435.544.19.148.365.572.608.631.177.042.384-.104.543-.143.18-.043.397.01.571-.053.222-.079.127-.337.288-.45.104-.074.287-.01.406-.051a.607.607 0 0 0 .376-.46c.016-.082.01-.145.039-.221.039-.103.111-.16.09-.293-.01-.062-.052-.12-.064-.187-.022-.114.002-.224 0-.337-.003-.2.017-.379-.078-.55-.38-.688-1.236-.929-1.975-.789-.18.034-.287.126-.442.207-.17.088-.139.166-.318.224-.081.026-.216.124-.215.224.001.115.005.051.012.169-.021.011-.021-.005-.03-.025M23.477-48.695a.247.247 0 0 1-.026.19c-.053.101-.112.063-.165.128a.638.638 0 0 0-.079.362c-.169.058-.009.227-.015.35-.002.05-.041.105-.045.161a.764.764 0 0 0 .068.37c.097.198.268.413.435.544.19.148.365.572.608.631.177.042.384-.104.543-.143.18-.043.397.01.571-.053.222-.079.127-.337.288-.45.104-.074.287-.01.406-.051a.607.607 0 0 0 .376-.46c.016-.082.01-.145.039-.221.039-.103.111-.16.09-.293-.01-.062-.052-.12-.064-.187-.022-.114.002-.224 0-.337-.003-.2.017-.379-.078-.55-.38-.688-1.236-.929-1.975-.789-.18.034-.287.126-.442.207-.17.088-.139.166-.318.224-.081.026-.216.124-.215.224.001.115.005.051.012.169-.021.011-.021-.005-.03-.025M15.816-48.695a.247.247 0 0 1-.026.19c-.053.101-.112.063-.165.128a.638.638 0 0 0-.079.362c-.169.058-.009.227-.015.35-.002.05-.041.105-.045.161a.764.764 0 0 0 .068.37c.097.198.268.413.435.544.19.148.365.572.608.631.177.042.384-.104.543-.143.18-.043.397.01.571-.053.222-.079.127-.337.288-.45.104-.074.287-.01.406-.051a.607.607 0 0 0 .376-.46c.016-.082.01-.145.039-.221.039-.103.111-.16.09-.293-.01-.062-.052-.12-.064-.187-.022-.114.002-.224 0-.337-.003-.2.017-.379-.078-.55-.38-.688-1.236-.929-1.975-.789-.18.034-.287.126-.442.207-.17.088-.139.166-.318.224-.081.026-.216.124-.215.224.001.115.005.051.012.169-.021.011-.021-.005-.03-.025M8.156-48.695a.247.247 0 0 1-.026.19c-.053.101-.112.063-.165.128a.638.638 0 0 0-.079.362c-.169.058-.009.227-.015.35-.002.05-.041.105-.045.161a.764.764 0 0 0 .068.37c.097.198.268.413.435.544.19.148.365.572.608.631.177.042.384-.104.543-.143.18-.043.397.01.571-.053.222-.079.127-.337.288-.45.104-.074.287-.01.406-.051a.607.607 0 0 0 .376-.46c.016-.082.01-.145.039-.221.039-.103.111-.16.09-.293-.01-.062-.052-.12-.064-.187-.022-.114.002-.224 0-.337-.003-.2.017-.379-.078-.55-.38-.688-1.236-.929-1.975-.789-.18.034-.287.126-.442.207-.17.088-.139.166-.318.224-.081.026-.216.124-.215.224.001.115.005.051.012.169-.021.011-.021-.005-.03-.025M.495-48.695a.247.247 0 0 1-.026.19c-.053.101-.112.063-.165.128a.638.638 0 0 0-.079.362c-.169.058-.01.227-.015.35-.002.05-.041.105-.045.161a.764.764 0 0 0 .068.37c.097.198.268.413.435.544.19.148.365.572.608.631.177.042.384-.104.543-.143.18-.043.397.01.571-.053.222-.079.127-.337.288-.45.104-.074.287-.01.406-.051a.607.607 0 0 0 .376-.46c.016-.082.01-.145.039-.221.039-.103.111-.16.09-.293-.01-.062-.052-.12-.064-.187-.022-.114.002-.224 0-.337-.003-.2.017-.379-.078-.55-.38-.688-1.236-.929-1.975-.789-.18.034-.287.126-.442.207-.17.088-.139.166-.318.224-.081.026-.216.124-.215.224.001.115.005.051.012.169-.021.011-.021-.005-.03-.025"/></g><g><path d="M69.439-41.042a.247.247 0 0 1-.026.19c-.053.101-.112.063-.165.128a.638.638 0 0 0-.079.362c-.169.058-.01.227-.015.35-.002.05-.041.105-.045.161a.764.764 0 0 0 .068.37c.097.198.268.413.435.544.19.148.365.572.608.631.177.042.384-.104.543-.143.18-.043.397.01.571-.053.222-.079.127-.337.288-.45.104-.074.287-.01.406-.051a.607.607 0 0 0 .376-.46c.016-.082.01-.145.039-.221.039-.103.111-.16.09-.293-.01-.062-.052-.12-.064-.187-.022-.114.002-.224 0-.337-.003-.2.017-.379-.078-.55-.38-.688-1.236-.929-1.975-.789-.18.034-.287.126-.442.207-.17.088-.139.166-.318.224-.081.026-.216.124-.215.224.001.115.005.051.012.169-.021.011-.021-.005-.03-.025M61.778-41.042a.247.247 0 0 1-.026.19c-.053.101-.112.063-.165.128a.638.638 0 0 0-.079.362c-.169.058-.009.227-.015.35-.002.05-.041.105-.045.161a.764.764 0 0 0 .068.37c.097.198.268.413.435.544.19.148.365.572.608.631.177.042.384-.104.543-.143.18-.043.397.01.571-.053.222-.079.127-.337.288-.45.104-.074.287-.01.406-.051a.607.607 0 0 0 .376-.46c.016-.082.01-.145.039-.221.039-.103.111-.16.09-.293-.01-.062-.052-.12-.064-.187-.022-.114.002-.224 0-.337-.003-.2.017-.379-.078-.55-.38-.688-1.236-.929-1.975-.789-.18.034-.287.126-.442.207-.17.088-.139.166-.318.224-.081.026-.216.124-.215.224.001.115.005.051.012.169-.021.011-.021-.005-.03-.025M54.118-41.042a.247.247 0 0 1-.026.19c-.053.101-.112.063-.165.128a.638.638 0 0 0-.079.362c-.169.058-.009.227-.015.35-.002.05-.041.105-.045.161a.764.764 0 0 0 .068.37c.097.198.268.413.435.544.19.148.365.572.608.631.177.042.384-.104.543-.143.18-.043.397.01.571-.053.222-.079.127-.337.288-.45.104-.074.287-.01.406-.051a.607.607 0 0 0 .376-.46c.016-.082.01-.145.039-.221.039-.103.111-.16.09-.293-.01-.062-.052-.12-.064-.187-.022-.114.002-.224 0-.337-.003-.2.017-.379-.078-.55-.38-.688-1.236-.929-1.975-.789-.18.034-.287.126-.442.207-.17.088-.139.166-.318.224-.081.026-.216.124-.215.224.001.115.005.051.012.169-.021.011-.021-.005-.03-.025M46.458-41.042a.247.247 0 0 1-.026.19c-.053.101-.112.063-.165.128a.638.638 0 0 0-.079.362c-.169.058-.009.227-.015.35-.002.05-.041.105-.045.161a.764.764 0 0 0 .068.37c.097.198.268.413.435.544.19.148.365.572.608.631.177.042.384-.104.543-.143.18-.043.397.01.571-.053.222-.079.127-.337.288-.45.104-.074.287-.01.406-.051a.607.607 0 0 0 .376-.46c.016-.082.01-.145.039-.221.039-.103.111-.16.09-.293-.01-.062-.052-.12-.064-.187-.022-.114.002-.224 0-.337-.003-.2.017-.379-.078-.55-.38-.688-1.236-.929-1.975-.789-.18.034-.287.126-.442.207-.17.088-.139.166-.318.224-.081.026-.216.124-.215.224.001.115.005.051.012.169-.021.011-.021-.005-.03-.025M38.797-41.042a.247.247 0 0 1-.026.19c-.053.101-.112.063-.165.128a.638.638 0 0 0-.079.362c-.169.058-.009.227-.015.35-.002.05-.041.105-.045.161a.764.764 0 0 0 .068.37c.097.198.268.413.435.544.19.148.365.572.608.631.177.042.384-.104.543-.143.18-.043.397.01.571-.053.222-.079.127-.337.288-.45.104-.074.287-.01.406-.051a.607.607 0 0 0 .376-.46c.016-.082.01-.145.039-.221.039-.103.111-.16.09-.293-.01-.062-.052-.12-.064-.187-.022-.114.002-.224 0-.337-.003-.2.017-.379-.078-.55-.38-.688-1.236-.929-1.975-.789-.18.034-.287.126-.442.207-.17.088-.139.166-.318.224-.081.026-.216.124-.215.224.001.115.005.051.012.169-.021.011-.021-.005-.03-.025M31.137-41.042a.247.247 0 0 1-.026.19c-.053.101-.112.063-.165.128a.638.638 0 0 0-.079.362c-.169.058-.009.227-.015.35-.002.05-.041.105-.045.161a.764.764 0 0 0 .068.37c.097.198.268.413.435.544.19.148.365.572.608.631.177.042.384-.104.543-.143.18-.043.397.01.571-.053.222-.079.127-.337.288-.45.104-.074.287-.01.406-.051a.607.607 0 0 0 .376-.46c.016-.082.01-.145.039-.221.039-.103.111-.16.09-.293-.01-.062-.052-.12-.064-.187-.022-.114.002-.224 0-.337-.003-.2.017-.379-.078-.55-.38-.688-1.236-.929-1.975-.789-.18.034-.287.126-.442.207-.17.088-.139.166-.318.224-.081.026-.216.124-.215.224.001.115.005.051.012.169-.021.011-.021-.005-.03-.025M23.477-41.042a.247.247 0 0 1-.026.19c-.053.101-.112.063-.165.128a.638.638 0 0 0-.079.362c-.169.058-.009.227-.015.35-.002.05-.041.105-.045.161a.764.764 0 0 0 .068.37c.097.198.268.413.435.544.19.148.365.572.608.631.177.042.384-.104.543-.143.18-.043.397.01.571-.053.222-.079.127-.337.288-.45.104-.074.287-.01.406-.051a.607.607 0 0 0 .376-.46c.016-.082.01-.145.039-.221.039-.103.111-.16.09-.293-.01-.062-.052-.12-.064-.187-.022-.114.002-.224 0-.337-.003-.2.017-.379-.078-.55-.38-.688-1.236-.929-1.975-.789-.18.034-.287.126-.442.207-.17.088-.139.166-.318.224-.081.026-.216.124-.215.224.001.115.005.051.012.169-.021.011-.021-.005-.03-.025M15.816-41.042a.247.247 0 0 1-.026.19c-.053.101-.112.063-.165.128a.638.638 0 0 0-.079.362c-.169.058-.009.227-.015.35-.002.05-.041.105-.045.161a.764.764 0 0 0 .068.37c.097.198.268.413.435.544.19.148.365.572.608.631.177.042.384-.104.543-.143.18-.043.397.01.571-.053.222-.079.127-.337.288-.45.104-.074.287-.01.406-.051a.607.607 0 0 0 .376-.46c.016-.082.01-.145.039-.221.039-.103.111-.16.09-.293-.01-.062-.052-.12-.064-.187-.022-.114.002-.224 0-.337-.003-.2.017-.379-.078-.55-.38-.688-1.236-.929-1.975-.789-.18.034-.287.126-.442.207-.17.088-.139.166-.318.224-.081.026-.216.124-.215.224.001.115.005.051.012.169-.021.011-.021-.005-.03-.025M8.156-41.042a.247.247 0 0 1-.026.19c-.053.101-.112.063-.165.128a.638.638 0 0 0-.079.362c-.169.058-.009.227-.015.35-.002.05-.041.105-.045.161a.764.764 0 0 0 .068.37c.097.198.268.413.435.544.19.148.365.572.608.631.177.042.384-.104.543-.143.18-.043.397.01.571-.053.222-.079.127-.337.288-.45.104-.074.287-.01.406-.051a.607.607 0 0 0 .376-.46c.016-.082.01-.145.039-.221.039-.103.111-.16.09-.293-.01-.062-.052-.12-.064-.187-.022-.114.002-.224 0-.337-.003-.2.017-.379-.078-.55-.38-.688-1.236-.929-1.975-.789-.18.034-.287.126-.442.207-.17.088-.139.166-.318.224-.081.026-.216.124-.215.224.001.115.005.051.012.169-.02.012-.021-.004-.03-.024M.495-41.042a.247.247 0 0 1-.026.19c-.053.101-.112.063-.165.128a.638.638 0 0 0-.079.362c-.169.058-.01.227-.015.35-.002.05-.041.105-.045.161a.764.764 0 0 0 .068.37c.097.198.268.413.435.544.19.148.365.572.608.631.177.042.384-.104.543-.143.18-.043.397.01.571-.053.222-.079.127-.337.288-.45.104-.074.287-.01.406-.051a.607.607 0 0 0 .376-.46c.016-.082.01-.145.039-.221.039-.103.111-.16.09-.293-.01-.062-.052-.12-.064-.187-.022-.114.002-.224 0-.337-.003-.2.017-.379-.078-.55-.38-.688-1.236-.929-1.975-.789-.18.034-.287.126-.442.207-.17.088-.139.166-.318.224-.081.026-.216.124-.215.224.001.115.005.051.012.169-.021.011-.021-.005-.03-.025"/></g><g><path d="M69.439-33.39a.247.247 0 0 1-.026.19c-.053.101-.112.063-.165.128a.638.638 0 0 0-.079.362c-.169.058-.01.227-.015.35-.002.05-.041.105-.045.161a.764.764 0 0 0 .068.37c.097.198.268.413.435.544.19.148.365.572.608.631.177.042.384-.104.543-.143.18-.043.397.01.571-.053.222-.079.127-.337.288-.45.104-.074.287-.01.406-.051a.607.607 0 0 0 .376-.46c.016-.082.01-.145.039-.221.039-.103.111-.16.09-.293-.01-.062-.052-.12-.064-.187-.022-.114.002-.224 0-.337-.003-.2.017-.379-.078-.55-.38-.688-1.236-.929-1.975-.789-.18.034-.287.126-.442.207-.17.088-.139.166-.318.224-.081.026-.216.124-.215.224.001.115.005.051.012.169-.021.011-.021-.005-.03-.025M61.778-33.39a.247.247 0 0 1-.026.19c-.053.101-.112.063-.165.128a.638.638 0 0 0-.079.362c-.169.058-.009.227-.015.35-.002.05-.041.105-.045.161a.764.764 0 0 0 .068.37c.097.198.268.413.435.544.19.148.365.572.608.631.177.042.384-.104.543-.143.18-.043.397.01.571-.053.222-.079.127-.337.288-.45.104-.074.287-.01.406-.051a.607.607 0 0 0 .376-.46c.016-.082.01-.145.039-.221.039-.103.111-.16.09-.293-.01-.062-.052-.12-.064-.187-.022-.114.002-.224 0-.337-.003-.2.017-.379-.078-.55-.38-.688-1.236-.929-1.975-.789-.18.034-.287.126-.442.207-.17.088-.139.166-.318.224-.081.026-.216.124-.215.224.001.115.005.051.012.169-.021.011-.021-.005-.03-.025M54.118-33.39a.247.247 0 0 1-.026.19c-.053.101-.112.063-.165.128a.638.638 0 0 0-.079.362c-.169.058-.009.227-.015.35-.002.05-.041.105-.045.161a.764.764 0 0 0 .068.37c.097.198.268.413.435.544.19.148.365.572.608.631.177.042.384-.104.543-.143.18-.043.397.01.571-.053.222-.079.127-.337.288-.45.104-.074.287-.01.406-.051a.607.607 0 0 0 .376-.46c.016-.082.01-.145.039-.221.039-.103.111-.16.09-.293-.01-.062-.052-.12-.064-.187-.022-.114.002-.224 0-.337-.003-.2.017-.379-.078-.55-.38-.688-1.236-.929-1.975-.789-.18.034-.287.126-.442.207-.17.088-.139.166-.318.224-.081.026-.216.124-.215.224.001.115.005.051.012.169-.021.011-.021-.005-.03-.025M46.458-33.39a.247.247 0 0 1-.026.19c-.053.101-.112.063-.165.128a.638.638 0 0 0-.079.362c-.169.058-.009.227-.015.35-.002.05-.041.105-.045.161a.764.764 0 0 0 .068.37c.097.198.268.413.435.544.19.148.365.572.608.631.177.042.384-.104.543-.143.18-.043.397.01.571-.053.222-.079.127-.337.288-.45.104-.074.287-.01.406-.051a.607.607 0 0 0 .376-.46c.016-.082.01-.145.039-.221.039-.103.111-.16.09-.293-.01-.062-.052-.12-.064-.187-.022-.114.002-.224 0-.337-.003-.2.017-.379-.078-.55-.38-.688-1.236-.929-1.975-.789-.18.034-.287.126-.442.207-.17.088-.139.166-.318.224-.081.026-.216.124-.215.224.001.115.005.051.012.169-.021.011-.021-.005-.03-.025M38.797-33.39a.247.247 0 0 1-.026.19c-.053.101-.112.063-.165.128a.638.638 0 0 0-.079.362c-.169.058-.009.227-.015.35-.002.05-.041.105-.045.161a.764.764 0 0 0 .068.37c.097.198.268.413.435.544.19.148.365.572.608.631.177.042.384-.104.543-.143.18-.043.397.01.571-.053.222-.079.127-.337.288-.45.104-.074.287-.01.406-.051a.607.607 0 0 0 .376-.46c.016-.082.01-.145.039-.221.039-.103.111-.16.09-.293-.01-.062-.052-.12-.064-.187-.022-.114.002-.224 0-.337-.003-.2.017-.379-.078-.55-.38-.688-1.236-.929-1.975-.789-.18.034-.287.126-.442.207-.17.088-.139.166-.318.224-.081.026-.216.124-.215.224.001.115.005.051.012.169-.021.011-.021-.005-.03-.025M31.137-33.39a.247.247 0 0 1-.026.19c-.053.101-.112.063-.165.128a.638.638 0 0 0-.079.362c-.169.058-.009.227-.015.35-.002.05-.041.105-.045.161a.764.764 0 0 0 .068.37c.097.198.268.413.435.544.19.148.365.572.608.631.177.042.384-.104.543-.143.18-.043.397.01.571-.053.222-.079.127-.337.288-.45.104-.074.287-.01.406-.051a.607.607 0 0 0 .376-.46c.016-.082.01-.145.039-.221.039-.103.111-.16.09-.293-.01-.062-.052-.12-.064-.187-.022-.114.002-.224 0-.337-.003-.2.017-.379-.078-.55-.38-.688-1.236-.929-1.975-.789-.18.034-.287.126-.442.207-.17.088-.139.166-.318.224-.081.026-.216.124-.215.224.001.115.005.051.012.169-.021.011-.021-.005-.03-.025M23.477-33.39a.247.247 0 0 1-.026.19c-.053.101-.112.063-.165.128a.638.638 0 0 0-.079.362c-.169.058-.009.227-.015.35-.002.05-.041.105-.045.161a.764.764 0 0 0 .068.37c.097.198.268.413.435.544.19.148.365.572.608.631.177.042.384-.104.543-.143.18-.043.397.01.571-.053.222-.079.127-.337.288-.45.104-.074.287-.01.406-.051a.607.607 0 0 0 .376-.46c.016-.082.01-.145.039-.221.039-.103.111-.16.09-.293-.01-.062-.052-.12-.064-.187-.022-.114.002-.224 0-.337-.003-.2.017-.379-.078-.55-.38-.688-1.236-.929-1.975-.789-.18.034-.287.126-.442.207-.17.088-.139.166-.318.224-.081.026-.216.124-.215.224.001.115.005.051.012.169-.021.011-.021-.005-.03-.025M15.816-33.39a.247.247 0 0 1-.026.19c-.053.101-.112.063-.165.128a.638.638 0 0 0-.079.362c-.169.058-.009.227-.015.35-.002.05-.041.105-.045.161a.764.764 0 0 0 .068.37c.097.198.268.413.435.544.19.148.365.572.608.631.177.042.384-.104.543-.143.18-.043.397.01.571-.053.222-.079.127-.337.288-.45.104-.074.287-.01.406-.051a.607.607 0 0 0 .376-.46c.016-.082.01-.145.039-.221.039-.103.111-.16.09-.293-.01-.062-.052-.12-.064-.187-.022-.114.002-.224 0-.337-.003-.2.017-.379-.078-.55-.38-.688-1.236-.929-1.975-.789-.18.034-.287.126-.442.207-.17.088-.139.166-.318.224-.081.026-.216.124-.215.224.001.115.005.051.012.169-.021.011-.021-.005-.03-.025M8.156-33.39a.247.247 0 0 1-.026.19c-.053.101-.112.063-.165.128a.638.638 0 0 0-.079.362c-.169.058-.009.227-.015.35-.002.05-.041.105-.045.161a.764.764 0 0 0 .068.37c.097.198.268.413.435.544.19.148.365.572.608.631.177.042.384-.104.543-.143.18-.043.397.01.571-.053.222-.079.127-.337.288-.45.104-.074.287-.01.406-.051a.607.607 0 0 0 .376-.46c.016-.082.01-.145.039-.221.039-.103.111-.16.09-.293-.01-.062-.052-.12-.064-.187-.022-.114.002-.224 0-.337-.003-.2.017-.379-.078-.55-.38-.688-1.236-.929-1.975-.789-.18.034-.287.126-.442.207-.17.088-.139.166-.318.224-.081.026-.216.124-.215.224.001.115.005.051.012.169-.021.011-.021-.005-.03-.025M.495-33.39a.247.247 0 0 1-.026.19c-.053.101-.112.063-.165.128a.638.638 0 0 0-.079.362c-.169.058-.01.227-.015.35-.002.05-.041.105-.045.161a.764.764 0 0 0 .068.37c.097.198.268.413.435.544.19.148.365.572.608.631.177.042.384-.104.543-.143.18-.043.397.01.571-.053.222-.079.127-.337.288-.45.104-.074.287-.01.406-.051a.607.607 0 0 0 .376-.46c.016-.082.01-.145.039-.221.039-.103.111-.16.09-.293-.01-.062-.052-.12-.064-.187-.022-.114.002-.224 0-.337-.003-.2.017-.379-.078-.55-.38-.688-1.236-.929-1.975-.789-.18.034-.287.126-.442.207-.17.088-.139.166-.318.224-.081.026-.216.124-.215.224.003.117.006.053.013.171-.021.011-.021-.005-.03-.025"/></g><g><path d="M69.439-25.736a.247.247 0 0 1-.026.19c-.053.101-.112.063-.165.128a.638.638 0 0 0-.079.362c-.169.058-.01.227-.015.35-.002.05-.041.105-.045.161a.764.764 0 0 0 .068.37c.097.198.268.413.435.544.19.148.365.572.608.631.177.042.384-.104.543-.143.18-.043.397.01.571-.053.222-.079.127-.337.288-.45.104-.074.287-.01.406-.051a.607.607 0 0 0 .376-.46c.016-.082.01-.145.039-.221.039-.103.111-.16.09-.293-.01-.062-.052-.12-.064-.187-.022-.114.002-.224 0-.337-.003-.2.017-.379-.078-.55-.38-.688-1.236-.929-1.975-.789-.18.034-.287.126-.442.207-.17.088-.139.166-.318.224-.081.026-.216.124-.215.224.001.115.005.051.012.169-.021.011-.021-.005-.03-.025M61.778-25.736a.247.247 0 0 1-.026.19c-.053.101-.112.063-.165.128a.638.638 0 0 0-.079.362c-.169.058-.009.227-.015.35-.002.05-.041.105-.045.161a.764.764 0 0 0 .068.37c.097.198.268.413.435.544.19.148.365.572.608.631.177.042.384-.104.543-.143.18-.043.397.01.571-.053.222-.079.127-.337.288-.45.104-.074.287-.01.406-.051a.607.607 0 0 0 .376-.46c.016-.082.01-.145.039-.221.039-.103.111-.16.09-.293-.01-.062-.052-.12-.064-.187-.022-.114.002-.224 0-.337-.003-.2.017-.379-.078-.55-.38-.688-1.236-.929-1.975-.789-.18.034-.287.126-.442.207-.17.088-.139.166-.318.224-.081.026-.216.124-.215.224.001.115.005.051.012.169-.021.011-.021-.005-.03-.025M54.118-25.736a.247.247 0 0 1-.026.19c-.053.101-.112.063-.165.128a.638.638 0 0 0-.079.362c-.169.058-.009.227-.015.35-.002.05-.041.105-.045.161a.764.764 0 0 0 .068.37c.097.198.268.413.435.544.19.148.365.572.608.631.177.042.384-.104.543-.143.18-.043.397.01.571-.053.222-.079.127-.337.288-.45.104-.074.287-.01.406-.051a.607.607 0 0 0 .376-.46c.016-.082.01-.145.039-.221.039-.103.111-.16.09-.293-.01-.062-.052-.12-.064-.187-.022-.114.002-.224 0-.337-.003-.2.017-.379-.078-.55-.38-.688-1.236-.929-1.975-.789-.18.034-.287.126-.442.207-.17.088-.139.166-.318.224-.081.026-.216.124-.215.224.001.115.005.051.012.169-.021.011-.021-.005-.03-.025M46.458-25.736a.247.247 0 0 1-.026.19c-.053.101-.112.063-.165.128a.638.638 0 0 0-.079.362c-.169.058-.009.227-.015.35-.002.05-.041.105-.045.161a.764.764 0 0 0 .068.37c.097.198.268.413.435.544.19.148.365.572.608.631.177.042.384-.104.543-.143.18-.043.397.01.571-.053.222-.079.127-.337.288-.45.104-.074.287-.01.406-.051a.607.607 0 0 0 .376-.46c.016-.082.01-.145.039-.221.039-.103.111-.16.09-.293-.01-.062-.052-.12-.064-.187-.022-.114.002-.224 0-.337-.003-.2.017-.379-.078-.55-.38-.688-1.236-.929-1.975-.789-.18.034-.287.126-.442.207-.17.088-.139.166-.318.224-.081.026-.216.124-.215.224.001.115.005.051.012.169-.021.011-.021-.005-.03-.025M38.797-25.736a.247.247 0 0 1-.026.19c-.053.101-.112.063-.165.128a.638.638 0 0 0-.079.362c-.169.058-.009.227-.015.35-.002.05-.041.105-.045.161a.764.764 0 0 0 .068.37c.097.198.268.413.435.544.19.148.365.572.608.631.177.042.384-.104.543-.143.18-.043.397.01.571-.053.222-.079.127-.337.288-.45.104-.074.287-.01.406-.051a.607.607 0 0 0 .376-.46c.016-.082.01-.145.039-.221.039-.103.111-.16.09-.293-.01-.062-.052-.12-.064-.187-.022-.114.002-.224 0-.337-.003-.2.017-.379-.078-.55-.38-.688-1.236-.929-1.975-.789-.18.034-.287.126-.442.207-.17.088-.139.166-.318.224-.081.026-.216.124-.215.224.001.115.005.051.012.169-.021.011-.021-.005-.03-.025M31.137-25.736a.247.247 0 0 1-.026.19c-.053.101-.112.063-.165.128a.638.638 0 0 0-.079.362c-.169.058-.009.227-.015.35-.002.05-.041.105-.045.161a.764.764 0 0 0 .068.37c.097.198.268.413.435.544.19.148.365.572.608.631.177.042.384-.104.543-.143.18-.043.397.01.571-.053.222-.079.127-.337.288-.45.104-.074.287-.01.406-.051a.607.607 0 0 0 .376-.46c.016-.082.01-.145.039-.221.039-.103.111-.16.09-.293-.01-.062-.052-.12-.064-.187-.022-.114.002-.224 0-.337-.003-.2.017-.379-.078-.55-.38-.688-1.236-.929-1.975-.789-.18.034-.287.126-.442.207-.17.088-.139.166-.318.224-.081.026-.216.124-.215.224.001.115.005.051.012.169-.021.011-.021-.005-.03-.025M23.477-25.736a.247.247 0 0 1-.026.19c-.053.101-.112.063-.165.128a.638.638 0 0 0-.079.362c-.169.058-.009.227-.015.35-.002.05-.041.105-.045.161a.764.764 0 0 0 .068.37c.097.198.268.413.435.544.19.148.365.572.608.631.177.042.384-.104.543-.143.18-.043.397.01.571-.053.222-.079.127-.337.288-.45.104-.074.287-.01.406-.051a.607.607 0 0 0 .376-.46c.016-.082.01-.145.039-.221.039-.103.111-.16.09-.293-.01-.062-.052-.12-.064-.187-.022-.114.002-.224 0-.337-.003-.2.017-.379-.078-.55-.38-.688-1.236-.929-1.975-.789-.18.034-.287.126-.442.207-.17.088-.139.166-.318.224-.081.026-.216.124-.215.224.001.115.005.051.012.169-.021.011-.021-.005-.03-.025M15.816-25.736a.247.247 0 0 1-.026.19c-.053.101-.112.063-.165.128a.638.638 0 0 0-.079.362c-.169.058-.009.227-.015.35-.002.05-.041.105-.045.161a.764.764 0 0 0 .068.37c.097.198.268.413.435.544.19.148.365.572.608.631.177.042.384-.104.543-.143.18-.043.397.01.571-.053.222-.079.127-.337.288-.45.104-.074.287-.01.406-.051a.607.607 0 0 0 .376-.46c.016-.082.01-.145.039-.221.039-.103.111-.16.09-.293-.01-.062-.052-.12-.064-.187-.022-.114.002-.224 0-.337-.003-.2.017-.379-.078-.55-.38-.688-1.236-.929-1.975-.789-.18.034-.287.126-.442.207-.17.088-.139.166-.318.224-.081.026-.216.124-.215.224.001.115.005.051.012.169-.021.011-.021-.005-.03-.025M8.156-25.736a.247.247 0 0 1-.026.19c-.053.101-.112.063-.165.128a.638.638 0 0 0-.079.362c-.169.058-.009.227-.015.35-.002.05-.041.105-.045.161a.764.764 0 0 0 .068.37c.097.198.268.413.435.544.19.148.365.572.608.631.177.042.384-.104.543-.143.18-.043.397.01.571-.053.222-.079.127-.337.288-.45.104-.074.287-.01.406-.051a.607.607 0 0 0 .376-.46c.016-.082.01-.145.039-.221.039-.103.111-.16.09-.293-.01-.062-.052-.12-.064-.187-.022-.114.002-.224 0-.337-.003-.2.017-.379-.078-.55-.38-.688-1.236-.929-1.975-.789-.18.034-.287.126-.442.207-.17.088-.139.166-.318.224-.081.026-.216.124-.215.224.001.115.005.051.012.169-.021.011-.021-.005-.03-.025M.495-25.736a.247.247 0 0 1-.026.19c-.053.101-.112.063-.165.128a.638.638 0 0 0-.079.362c-.169.058-.01.227-.015.35-.002.05-.041.105-.045.161a.764.764 0 0 0 .068.37c.097.198.268.413.435.544.19.148.365.572.608.631.177.042.384-.104.543-.143.18-.043.397.01.571-.053.222-.079.127-.337.288-.45.104-.074.287-.01.406-.051a.607.607 0 0 0 .376-.46c.016-.082.01-.145.039-.221.039-.103.111-.16.09-.293-.01-.062-.052-.12-.064-.187-.022-.114.002-.224 0-.337-.003-.2.017-.379-.078-.55-.38-.688-1.236-.929-1.975-.789-.18.034-.287.126-.442.207-.17.088-.139.166-.318.224-.081.026-.216.124-.215.224.001.115.005.051.012.169-.021.011-.021-.005-.03-.025"/></g><g><path d="M69.439-18.084a.247.247 0 0 1-.026.19c-.053.101-.112.063-.165.128a.638.638 0 0 0-.079.362c-.169.058-.01.227-.015.35-.002.05-.041.105-.045.161a.764.764 0 0 0 .068.37c.097.198.268.413.435.544.19.148.365.572.608.631.177.042.384-.104.543-.143.18-.043.397.01.571-.053.222-.079.127-.337.288-.45.104-.074.287-.01.406-.051a.607.607 0 0 0 .376-.46c.016-.082.01-.145.039-.221.039-.103.111-.16.09-.293-.01-.062-.052-.12-.064-.187-.022-.114.002-.224 0-.337-.003-.2.017-.379-.078-.55-.38-.688-1.236-.929-1.975-.789-.18.034-.287.126-.442.207-.17.088-.139.166-.318.224-.081.026-.216.124-.215.224.001.115.005.051.012.169-.021.011-.021-.005-.03-.025M61.778-18.084a.247.247 0 0 1-.026.19c-.053.101-.112.063-.165.128a.638.638 0 0 0-.079.362c-.169.058-.009.227-.015.35-.002.05-.041.105-.045.161a.764.764 0 0 0 .068.37c.097.198.268.413.435.544.19.148.365.572.608.631.177.042.384-.104.543-.143.18-.043.397.01.571-.053.222-.079.127-.337.288-.45.104-.074.287-.01.406-.051a.607.607 0 0 0 .376-.46c.016-.082.01-.145.039-.221.039-.103.111-.16.09-.293-.01-.062-.052-.12-.064-.187-.022-.114.002-.224 0-.337-.003-.2.017-.379-.078-.55-.38-.688-1.236-.929-1.975-.789-.18.034-.287.126-.442.207-.17.088-.139.166-.318.224-.081.026-.216.124-.215.224.001.115.005.051.012.169-.021.011-.021-.005-.03-.025M54.118-18.084a.247.247 0 0 1-.026.19c-.053.101-.112.063-.165.128a.638.638 0 0 0-.079.362c-.169.058-.009.227-.015.35-.002.05-.041.105-.045.161a.764.764 0 0 0 .068.37c.097.198.268.413.435.544.19.148.365.572.608.631.177.042.384-.104.543-.143.18-.043.397.01.571-.053.222-.079.127-.337.288-.45.104-.074.287-.01.406-.051a.607.607 0 0 0 .376-.46c.016-.082.01-.145.039-.221.039-.103.111-.16.09-.293-.01-.062-.052-.12-.064-.187-.022-.114.002-.224 0-.337-.003-.2.017-.379-.078-.55-.38-.688-1.236-.929-1.975-.789-.18.034-.287.126-.442.207-.17.088-.139.166-.318.224-.081.026-.216.124-.215.224.001.115.005.051.012.169-.021.011-.021-.005-.03-.025M46.458-18.084a.247.247 0 0 1-.026.19c-.053.101-.112.063-.165.128a.638.638 0 0 0-.079.362c-.169.058-.009.227-.015.35-.002.05-.041.105-.045.161a.764.764 0 0 0 .068.37c.097.198.268.413.435.544.19.148.365.572.608.631.177.042.384-.104.543-.143.18-.043.397.01.571-.053.222-.079.127-.337.288-.45.104-.074.287-.01.406-.051a.607.607 0 0 0 .376-.46c.016-.082.01-.145.039-.221.039-.103.111-.16.09-.293-.01-.062-.052-.12-.064-.187-.022-.114.002-.224 0-.337-.003-.2.017-.379-.078-.55-.38-.688-1.236-.929-1.975-.789-.18.034-.287.126-.442.207-.17.088-.139.166-.318.224-.081.026-.216.124-.215.224.001.115.005.051.012.169-.021.011-.021-.005-.03-.025M38.797-18.084a.247.247 0 0 1-.026.19c-.053.101-.112.063-.165.128a.638.638 0 0 0-.079.362c-.169.058-.009.227-.015.35-.002.05-.041.105-.045.161a.764.764 0 0 0 .068.37c.097.198.268.413.435.544.19.148.365.572.608.631.177.042.384-.104.543-.143.18-.043.397.01.571-.053.222-.079.127-.337.288-.45.104-.074.287-.01.406-.051a.607.607 0 0 0 .376-.46c.016-.082.01-.145.039-.221.039-.103.111-.16.09-.293-.01-.062-.052-.12-.064-.187-.022-.114.002-.224 0-.337-.003-.2.017-.379-.078-.55-.38-.688-1.236-.929-1.975-.789-.18.034-.287.126-.442.207-.17.088-.139.166-.318.224-.081.026-.216.124-.215.224.001.115.005.051.012.169-.021.011-.021-.005-.03-.025M31.137-18.084a.247.247 0 0 1-.026.19c-.053.101-.112.063-.165.128a.638.638 0 0 0-.079.362c-.169.058-.009.227-.015.35-.002.05-.041.105-.045.161a.764.764 0 0 0 .068.37c.097.198.268.413.435.544.19.148.365.572.608.631.177.042.384-.104.543-.143.18-.043.397.01.571-.053.222-.079.127-.337.288-.45.104-.074.287-.01.406-.051a.607.607 0 0 0 .376-.46c.016-.082.01-.145.039-.221.039-.103.111-.16.09-.293-.01-.062-.052-.12-.064-.187-.022-.114.002-.224 0-.337-.003-.2.017-.379-.078-.55-.38-.688-1.236-.929-1.975-.789-.18.034-.287.126-.442.207-.17.088-.139.166-.318.224-.081.026-.216.124-.215.224.001.115.005.051.012.169-.021.011-.021-.005-.03-.025M23.477-18.084a.247.247 0 0 1-.026.19c-.053.101-.112.063-.165.128a.638.638 0 0 0-.079.362c-.169.058-.009.227-.015.35-.002.05-.041.105-.045.161a.764.764 0 0 0 .068.37c.097.198.268.413.435.544.19.148.365.572.608.631.177.042.384-.104.543-.143.18-.043.397.01.571-.053.222-.079.127-.337.288-.45.104-.074.287-.01.406-.051a.607.607 0 0 0 .376-.46c.016-.082.01-.145.039-.221.039-.103.111-.16.09-.293-.01-.062-.052-.12-.064-.187-.022-.114.002-.224 0-.337-.003-.2.017-.379-.078-.55-.38-.688-1.236-.929-1.975-.789-.18.034-.287.126-.442.207-.17.088-.139.166-.318.224-.081.026-.216.124-.215.224.001.115.005.051.012.169-.021.011-.021-.005-.03-.025M15.816-18.084a.247.247 0 0 1-.026.19c-.053.101-.112.063-.165.128a.638.638 0 0 0-.079.362c-.169.058-.009.227-.015.35-.002.05-.041.105-.045.161a.764.764 0 0 0 .068.37c.097.198.268.413.435.544.19.148.365.572.608.631.177.042.384-.104.543-.143.18-.043.397.01.571-.053.222-.079.127-.337.288-.45.104-.074.287-.01.406-.051a.607.607 0 0 0 .376-.46c.016-.082.01-.145.039-.221.039-.103.111-.16.09-.293-.01-.062-.052-.12-.064-.187-.022-.114.002-.224 0-.337-.003-.2.017-.379-.078-.55-.38-.688-1.236-.929-1.975-.789-.18.034-.287.126-.442.207-.17.088-.139.166-.318.224-.081.026-.216.124-.215.224.001.115.005.051.012.169-.021.011-.021-.005-.03-.025M8.156-18.084a.247.247 0 0 1-.026.19c-.053.101-.112.063-.165.128a.638.638 0 0 0-.079.362c-.169.058-.009.227-.015.35-.002.05-.041.105-.045.161a.764.764 0 0 0 .068.37c.097.198.268.413.435.544.19.148.365.572.608.631.177.042.384-.104.543-.143.18-.043.397.01.571-.053.222-.079.127-.337.288-.45.104-.074.287-.01.406-.051a.607.607 0 0 0 .376-.46c.016-.082.01-.145.039-.221.039-.103.111-.16.09-.293-.01-.062-.052-.12-.064-.187-.022-.114.002-.224 0-.337-.003-.2.017-.379-.078-.55-.38-.688-1.236-.929-1.975-.789-.18.034-.287.126-.442.207-.17.088-.139.166-.318.224-.081.026-.216.124-.215.224.001.115.005.051.012.169-.021.011-.021-.005-.03-.025M.495-18.084a.247.247 0 0 1-.026.19c-.053.101-.112.063-.165.128a.638.638 0 0 0-.079.362c-.169.058-.01.227-.015.35-.002.05-.041.105-.045.161a.764.764 0 0 0 .068.37c.097.198.268.413.435.544.19.148.365.572.608.631.177.042.384-.104.543-.143.18-.043.397.01.571-.053.222-.079.127-.337.288-.45.104-.074.287-.01.406-.051a.607.607 0 0 0 .376-.46c.016-.082.01-.145.039-.221.039-.103.111-.16.09-.293-.01-.062-.052-.12-.064-.187-.022-.114.002-.224 0-.337-.003-.2.017-.379-.078-.55-.38-.688-1.236-.929-1.975-.789-.18.034-.287.126-.442.207-.17.088-.139.166-.318.224-.081.026-.216.124-.215.224.003.117.006.052.013.17-.021.011-.021-.005-.03-.025"/></g><g><path d="M69.439-10.431a.247.247 0 0 1-.026.19c-.053.101-.112.063-.165.128a.638.638 0 0 0-.079.362c-.169.059-.01.228-.015.351-.002.05-.041.105-.045.161a.764.764 0 0 0 .068.37c.097.198.268.413.435.544.19.148.365.572.608.631.177.042.384-.104.543-.143.18-.043.397.01.571-.053.222-.079.127-.337.288-.45.104-.074.287-.01.406-.051a.607.607 0 0 0 .376-.46c.016-.082.01-.145.039-.221.039-.103.111-.16.09-.293-.01-.062-.052-.12-.064-.187-.022-.114.002-.224 0-.337-.003-.2.017-.379-.078-.55-.38-.688-1.236-.929-1.975-.789-.18.034-.287.126-.442.207-.17.088-.139.166-.318.224-.081.026-.216.124-.215.224.001.115.005.051.012.169-.021.011-.021-.005-.03-.025M61.778-10.431a.247.247 0 0 1-.026.19c-.053.101-.112.063-.165.128a.638.638 0 0 0-.079.362c-.169.058-.009.227-.015.35-.002.05-.041.105-.045.161a.764.764 0 0 0 .068.37c.097.198.268.413.435.544.19.148.365.572.608.631.177.042.384-.104.543-.143.18-.043.397.01.571-.053.222-.079.127-.337.288-.45.104-.074.287-.01.406-.051a.607.607 0 0 0 .376-.46c.016-.082.01-.145.039-.221.039-.103.111-.16.09-.293-.01-.062-.052-.12-.064-.187-.022-.114.002-.224 0-.337-.003-.2.017-.379-.078-.55-.38-.688-1.236-.929-1.975-.789-.18.034-.287.126-.442.207-.17.088-.139.166-.318.224-.081.026-.216.124-.215.224.001.115.005.051.012.169-.021.011-.021-.005-.03-.025M54.118-10.431a.247.247 0 0 1-.026.19c-.053.101-.112.063-.165.128a.638.638 0 0 0-.079.362c-.169.058-.009.227-.015.35-.002.05-.041.105-.045.161a.764.764 0 0 0 .068.37c.097.198.268.413.435.544.19.148.365.572.608.631.177.042.384-.104.543-.143.18-.043.397.01.571-.053.222-.079.127-.337.288-.45.104-.074.287-.01.406-.051a.607.607 0 0 0 .376-.46c.016-.082.01-.145.039-.221.039-.103.111-.16.09-.293-.01-.062-.052-.12-.064-.187-.022-.114.002-.224 0-.337-.003-.2.017-.379-.078-.55-.38-.688-1.236-.929-1.975-.789-.18.034-.287.126-.442.207-.17.088-.139.166-.318.224-.081.026-.216.124-.215.224.001.115.005.051.012.169-.021.011-.021-.005-.03-.025M46.458-10.431a.247.247 0 0 1-.026.19c-.053.101-.112.063-.165.128a.638.638 0 0 0-.079.362c-.169.058-.009.227-.015.35-.002.05-.041.105-.045.161a.764.764 0 0 0 .068.37c.097.198.268.413.435.544.19.148.365.572.608.631.177.042.384-.104.543-.143.18-.043.397.01.571-.053.222-.079.127-.337.288-.45.104-.074.287-.01.406-.051a.607.607 0 0 0 .376-.46c.016-.082.01-.145.039-.221.039-.103.111-.16.09-.293-.01-.062-.052-.12-.064-.187-.022-.114.002-.224 0-.337-.003-.2.017-.379-.078-.55-.38-.688-1.236-.929-1.975-.789-.18.034-.287.126-.442.207-.17.088-.139.166-.318.224-.081.026-.216.124-.215.224.001.115.005.051.012.169-.021.011-.021-.005-.03-.025M38.797-10.431a.247.247 0 0 1-.026.19c-.053.101-.112.063-.165.128a.638.638 0 0 0-.079.362c-.169.058-.009.227-.015.35-.002.05-.041.105-.045.161a.764.764 0 0 0 .068.37c.097.198.268.413.435.544.19.148.365.572.608.631.177.042.384-.104.543-.143.18-.043.397.01.571-.053.222-.079.127-.337.288-.45.104-.074.287-.01.406-.051a.607.607 0 0 0 .376-.46c.016-.082.01-.145.039-.221.039-.103.111-.16.09-.293-.01-.062-.052-.12-.064-.187-.022-.114.002-.224 0-.337-.003-.2.017-.379-.078-.55-.38-.688-1.236-.929-1.975-.789-.18.034-.287.126-.442.207-.17.088-.139.166-.318.224-.081.026-.216.124-.215.224.001.115.005.051.012.169-.021.011-.021-.005-.03-.025M31.137-10.431a.247.247 0 0 1-.026.19c-.053.101-.112.063-.165.128a.638.638 0 0 0-.079.362c-.169.058-.009.227-.015.35-.002.05-.041.105-.045.161a.764.764 0 0 0 .068.37c.097.198.268.413.435.544.19.148.365.572.608.631.177.042.384-.104.543-.143.18-.043.397.01.571-.053.222-.079.127-.337.288-.45.104-.074.287-.01.406-.051a.607.607 0 0 0 .376-.46c.016-.082.01-.145.039-.221.039-.103.111-.16.09-.293-.01-.062-.052-.12-.064-.187-.022-.114.002-.224 0-.337-.003-.2.017-.379-.078-.55-.38-.688-1.236-.929-1.975-.789-.18.034-.287.126-.442.207-.17.088-.139.166-.318.224-.081.026-.216.124-.215.224.001.115.005.051.012.169-.021.011-.021-.005-.03-.025M23.477-10.431a.247.247 0 0 1-.026.19c-.053.101-.112.063-.165.128a.638.638 0 0 0-.079.362c-.169.058-.009.227-.015.35-.002.05-.041.105-.045.161a.764.764 0 0 0 .068.37c.097.198.268.413.435.544.19.148.365.572.608.631.177.042.384-.104.543-.143.18-.043.397.01.571-.053.222-.079.127-.337.288-.45.104-.074.287-.01.406-.051a.607.607 0 0 0 .376-.46c.016-.082.01-.145.039-.221.039-.103.111-.16.09-.293-.01-.062-.052-.12-.064-.187-.022-.114.002-.224 0-.337-.003-.2.017-.379-.078-.55-.38-.688-1.236-.929-1.975-.789-.18.034-.287.126-.442.207-.17.088-.139.166-.318.224-.081.026-.216.124-.215.224.001.115.005.051.012.169-.021.011-.021-.005-.03-.025M15.816-10.431a.247.247 0 0 1-.026.19c-.053.101-.112.063-.165.128a.638.638 0 0 0-.079.362c-.169.058-.009.227-.015.35-.002.05-.041.105-.045.161a.764.764 0 0 0 .068.37c.097.198.268.413.435.544.19.148.365.572.608.631.177.042.384-.104.543-.143.18-.043.397.01.571-.053.222-.078.128-.336.289-.449.104-.074.287-.01.406-.051a.607.607 0 0 0 .376-.46c.016-.082.01-.145.039-.221.039-.103.111-.16.09-.293-.01-.062-.052-.12-.064-.187-.022-.114.002-.224 0-.337-.003-.2.017-.379-.078-.55-.38-.688-1.236-.929-1.975-.789-.18.034-.287.126-.442.207-.17.088-.139.166-.318.224-.081.026-.216.124-.215.224.001.115.005.051.012.169-.021.011-.021-.005-.03-.025M8.156-10.431a.247.247 0 0 1-.026.19c-.053.101-.112.063-.165.128a.641.641 0 0 0-.079.363c-.169.058-.01.227-.015.35-.003.049-.041.105-.045.161a.764.764 0 0 0 .068.37c.097.198.268.413.435.544.19.148.365.572.608.631.177.042.384-.105.543-.143.18-.043.397.01.571-.053.222-.079.127-.337.288-.45.104-.074.287-.01.406-.051a.607.607 0 0 0 .376-.46c.016-.082.01-.145.039-.221.039-.103.111-.16.09-.293-.01-.062-.052-.12-.064-.187-.022-.114.002-.224 0-.337-.003-.2.017-.379-.078-.55-.38-.688-1.236-.929-1.975-.789-.18.034-.287.126-.442.207-.17.088-.139.166-.318.224-.081.026-.216.124-.215.224.001.115.005.051.012.169-.021.011-.021-.005-.03-.025M.495-10.431a.247.247 0 0 1-.026.19c-.053.101-.112.063-.165.128a.641.641 0 0 0-.079.363c-.169.058-.01.227-.015.35-.002.05-.041.105-.045.161a.764.764 0 0 0 .068.37c.097.198.268.413.435.544.19.148.365.572.608.631.178.042.384-.105.543-.143.181-.043.398.01.572-.053.222-.079.127-.337.288-.45.104-.074.287-.01.406-.051a.607.607 0 0 0 .376-.46c.016-.082.01-.144.039-.22.039-.103.111-.16.09-.293-.01-.062-.052-.12-.064-.187-.022-.114.002-.224 0-.337-.003-.2.017-.379-.078-.55-.38-.688-1.236-.929-1.975-.789-.18.034-.287.126-.442.207-.17.088-.139.166-.318.224-.081.026-.216.124-.215.224.001.115.005.051.012.169-.021.011-.021-.005-.03-.025"/></g></g><g fill="#FFF"><path d="M69.439-2.778a.242.242 0 0 1-.026.19c-.052.101-.113.063-.165.128a.63.63 0 0 0-.079.362c-.169.058-.01.227-.015.35-.002.05-.041.105-.045.161a.764.764 0 0 0 .068.37c.097.198.268.413.435.544.19.148.365.572.608.631.177.042.384-.104.543-.143.18-.043.397.01.571-.053.222-.079.127-.337.288-.45.104-.074.287-.01.406-.051.2-.07.339-.263.376-.46.016-.082.01-.145.039-.221.038-.103.111-.16.09-.293-.01-.062-.051-.12-.064-.187-.021-.114.002-.224 0-.337-.003-.2.017-.379-.078-.55-.38-.688-1.236-.929-1.975-.789-.18.034-.287.126-.442.207-.17.088-.139.166-.318.224-.081.026-.215.124-.215.224.002.115.005.051.012.169-.021.011-.021-.005-.03-.025M61.778-2.778a.247.247 0 0 1-.026.19c-.052.101-.112.063-.165.128a.638.638 0 0 0-.079.362c-.169.058-.01.227-.015.35-.002.05-.041.105-.045.161a.764.764 0 0 0 .068.37c.097.198.268.413.435.544.19.148.365.572.608.631.178.042.384-.104.544-.143.18-.043.397.01.571-.053.222-.079.127-.337.288-.45.104-.074.287-.01.406-.051a.607.607 0 0 0 .376-.46c.016-.082.01-.145.039-.221.039-.103.111-.16.09-.293-.01-.062-.052-.12-.064-.187-.022-.114.002-.224 0-.337-.003-.2.017-.379-.078-.55-.38-.688-1.236-.929-1.975-.789-.18.034-.287.126-.442.207-.17.088-.139.166-.318.224-.081.028-.216.125-.215.225.001.115.005.051.012.169-.021.011-.021-.005-.03-.025M54.118-2.778a.247.247 0 0 1-.026.19c-.052.101-.112.063-.165.128a.638.638 0 0 0-.079.362c-.169.058-.01.227-.015.35-.002.05-.041.105-.045.161a.764.764 0 0 0 .068.37c.097.198.268.413.435.544.19.148.365.572.608.631.178.042.384-.104.543-.143.18-.043.397.01.571-.053.222-.079.127-.337.288-.45.104-.074.287-.01.406-.051a.607.607 0 0 0 .376-.46c.016-.082.01-.145.039-.221.039-.103.111-.16.09-.293-.01-.062-.052-.12-.064-.187-.022-.114.002-.224 0-.337-.003-.2.017-.379-.078-.55-.38-.688-1.236-.929-1.975-.789-.18.034-.287.126-.442.207-.17.088-.139.166-.318.224-.08.028-.215.125-.214.225.001.115.005.051.012.169-.021.011-.021-.005-.03-.025M46.458-2.778a.247.247 0 0 1-.026.19c-.053.101-.112.063-.165.128a.638.638 0 0 0-.079.362c-.169.058-.01.227-.015.35-.002.05-.041.105-.045.161a.764.764 0 0 0 .068.37c.097.198.268.413.435.544.19.148.365.572.608.631.177.042.384-.104.543-.143.18-.043.397.01.571-.053.222-.079.127-.337.288-.45.104-.074.287-.01.406-.051a.607.607 0 0 0 .376-.46c.016-.082.01-.145.039-.221.039-.103.111-.16.09-.293-.01-.062-.052-.12-.064-.187-.022-.114.002-.224 0-.337-.003-.2.017-.379-.078-.55-.38-.688-1.236-.929-1.975-.789-.18.034-.287.126-.442.207-.17.088-.139.166-.318.224-.081.028-.216.125-.215.225.001.115.005.051.012.169-.021.011-.021-.005-.03-.025M38.797-2.778a.247.247 0 0 1-.026.19c-.053.101-.112.063-.165.128a.638.638 0 0 0-.079.362c-.169.058-.01.227-.015.35-.002.05-.041.105-.045.161a.764.764 0 0 0 .068.37c.097.198.268.413.435.544.19.148.365.572.608.631.178.042.384-.104.544-.143.18-.043.397.01.571-.053.222-.079.127-.337.288-.45.104-.074.287-.01.406-.051a.607.607 0 0 0 .376-.46c.016-.082.01-.145.039-.221.039-.103.111-.16.09-.293-.01-.062-.052-.12-.064-.187-.022-.114.002-.224 0-.337-.003-.2.017-.379-.078-.55-.38-.688-1.236-.929-1.975-.789-.18.034-.287.126-.442.207-.17.088-.139.166-.318.224-.081.028-.216.125-.215.225.001.115.005.051.012.169-.021.011-.021-.005-.03-.025M31.137-2.778a.247.247 0 0 1-.026.19c-.053.101-.112.063-.165.128a.638.638 0 0 0-.079.362c-.169.058-.01.227-.015.35-.002.05-.041.105-.045.161a.764.764 0 0 0 .068.37c.097.198.268.413.435.544.19.148.365.572.608.631.177.042.384-.104.543-.143.18-.043.397.01.571-.053.222-.079.127-.337.288-.45.104-.074.287-.01.406-.051a.607.607 0 0 0 .376-.46c.016-.082.01-.145.039-.221.039-.103.111-.16.09-.293-.01-.062-.052-.12-.064-.187-.022-.114.002-.224 0-.337-.003-.2.017-.379-.078-.55-.38-.688-1.236-.929-1.975-.789-.18.034-.287.126-.442.207-.17.088-.139.166-.318.224-.081.028-.215.125-.214.225.001.115.005.051.012.169-.021.011-.021-.005-.03-.025M23.477-2.778a.247.247 0 0 1-.026.19c-.053.101-.112.063-.165.128a.638.638 0 0 0-.079.362c-.169.058-.01.227-.015.35-.002.05-.041.105-.045.161a.764.764 0 0 0 .068.37c.097.198.268.413.435.544.19.148.365.572.608.631.177.042.384-.104.543-.143.18-.043.397.01.571-.053.222-.079.127-.337.288-.45.104-.074.287-.01.406-.051a.607.607 0 0 0 .376-.46c.016-.082.01-.145.039-.221.039-.103.111-.16.09-.293-.01-.062-.052-.12-.064-.187-.022-.114.002-.224 0-.337-.003-.2.017-.379-.078-.55-.38-.688-1.236-.929-1.975-.789-.18.034-.287.126-.442.207-.17.088-.139.166-.318.224-.081.026-.216.124-.215.224.001.115.005.051.012.169-.021.011-.021-.005-.03-.025M15.816-2.778a.247.247 0 0 1-.026.19c-.053.101-.112.063-.165.128a.638.638 0 0 0-.079.362c-.169.058-.01.227-.015.35-.002.05-.041.105-.045.161a.764.764 0 0 0 .068.37c.097.198.268.413.435.544.19.148.365.572.608.631.177.042.384-.104.543-.143.18-.043.397.01.571-.053.222-.079.127-.337.288-.45.104-.074.287-.01.406-.051a.607.607 0 0 0 .376-.46c.016-.082.01-.145.039-.221.039-.103.111-.16.09-.293-.01-.062-.052-.12-.064-.187-.022-.114.002-.224 0-.337-.003-.2.017-.379-.078-.55-.38-.688-1.236-.929-1.975-.789-.18.034-.287.126-.442.207-.17.088-.139.166-.318.224-.081.026-.216.124-.215.224.001.115.005.051.012.169-.02.012-.021-.004-.03-.024M8.156-2.778a.247.247 0 0 1-.026.19c-.053.101-.112.063-.165.128a.638.638 0 0 0-.079.362c-.169.058-.01.227-.015.35-.003.05-.041.105-.045.161a.764.764 0 0 0 .068.37c.097.198.268.413.435.544.19.148.365.572.608.631.177.042.384-.104.543-.143.18-.043.397.01.571-.053.222-.079.127-.337.288-.45.104-.074.287-.01.406-.051a.607.607 0 0 0 .376-.46c.016-.082.01-.145.039-.221.039-.103.111-.16.09-.293-.01-.062-.052-.12-.064-.187-.022-.114.002-.224 0-.337-.003-.2.017-.379-.078-.55-.38-.688-1.236-.929-1.975-.789-.179.036-.286.128-.441.209-.17.088-.139.166-.318.224-.082.026-.216.123-.215.223.001.115.005.051.011.169-.02.011-.021-.005-.03-.025M.495-2.778a.242.242 0 0 1-.026.19c-.052.101-.113.063-.165.128a.63.63 0 0 0-.079.362c-.169.058-.01.227-.015.35-.002.05-.041.105-.045.161a.764.764 0 0 0 .068.37c.097.198.268.413.435.544.19.148.365.572.608.631.178.042.384-.104.543-.143.181-.043.398.01.572-.052.222-.079.127-.337.288-.45.104-.074.287-.01.406-.051.2-.07.339-.263.376-.46.016-.082.01-.145.039-.221.038-.103.111-.16.09-.293-.01-.062-.051-.12-.064-.187-.021-.114.002-.224 0-.337-.003-.2.017-.379-.078-.55-.38-.688-1.236-.929-1.975-.789-.18.035-.286.127-.442.208-.17.088-.139.166-.318.224-.081.026-.215.123-.215.223.002.115.005.051.012.169-.021.011-.022-.005-.031-.025"/></g></pattern><path fill="#0071BC" d="M307.303 90.439h-.037c-2.688 0-4.702 2.296-4.702 5.099 0 2.842 2.015 5.1 4.776 5.1 2.687.038 4.665-2.258 4.665-5.1 0-2.803-1.979-5.099-4.702-5.099zm1.455 8.408c-.186-.233-.298-.778-.484-1.518-.112-.7-.485-1.013-1.269-1.013h-.672v2.53h-1.419v-6.345c.56-.116 1.344-.233 2.352-.233 1.157 0 1.679.194 2.128.506.335.272.596.778.596 1.363 0 .739-.522 1.284-1.269 1.518v.077c.598.195.934.701 1.12 1.558.186.973.299 1.362.447 1.557h-1.53zm21.281 33.403-5.918-79.079c-1.133-9.719-9.341-15.29-17.532-14.25L32.974 72.203c-8.189 1.033-14.153 10.597-13.016 20.32l8.698 79.309c1.138 9.725 10.319 15.29 18.507 14.246l270.084-34.346c8.197-1.041 13.92-9.76 12.792-19.482zM51.69 167.747 41.007 94.612l68.899-11.382 10.681 73.139-68.897 11.378zm71.119-32.091 33.128 1.513.408-9.723-22.342-1.02.522-12.444 20.002.913.405-9.645-20.003-.912.457-10.889 21.213.969.408-9.723-33.552-1.532-1.855 44.21-7.366-50.437-12.782 2.11-.32-4.908 70.639-4.712 4.401 76.12-51.417 3.431-1.946-13.321zm43.556 22.071-.337-5.912 15.719-1.049-.165-2.787-1.365-23.634c2.219 11.683 10.84 20.129 25.755 20.875 6.328.311 11.395-.746 13.55-1.695l-1.271-9.861c-2.47.942-6.414 1.482-10.077 1.289-10.555-.521-16.475-7.758-15.97-18.75.559-12.296 8.176-17.875 17.553-17.416 4.28.219 7.602 1.368 9.896 2.54l2.945-9.653c-2.058-1.244-6.677-2.786-12.854-3.093-15.77-.787-28.936 8.724-30.027 27.088l-2.096-36.247 55.857-3.462 4.404 77.335-71.517 4.432zm127.181-14.967-50.912-1.193-.78-13.74c3.107 1.52 7.262 2.923 11.559 3.517 15.011 2.068 22.986-4.863 24.155-14.152 1.006-7.887-2.804-13.599-12.003-18.548-6.792-3.779-9.6-5.752-9.15-9.289.362-2.794 3.277-4.988 8.636-4.242 5.272.724 9.057 2.831 11.023 4.186l4.028-9.642c-3.055-2.005-7.347-3.861-13.6-4.716-12.825-1.771-21.598 4.298-22.793 13.751-1.033 8.137 4.324 14.058 12.993 18.603 6.283 3.215 8.614 5.615 8.193 8.992-.478 3.693-3.778 5.666-9.454 4.884-5.11-.71-11.146-3.296-14.274-5.433l-2.598-45.744-15.197.942.18-8.397 71.679 1.673-1.685 78.548zm13.757-40.799c-3.508 0-6.307-2.803-6.307-6.423 0-3.542 2.799-6.383 6.307-6.383h.037c3.509 0 6.233 2.841 6.233 6.383 0 3.62-2.724 6.423-6.27 6.423zm-.15-8.602c-.373 0-.635.038-.783.077v1.829h.671c.785 0 1.419-.272 1.419-.934 0-.583-.411-.972-1.307-.972zm-213.31 6.681c-4.127-2.347-9.86-2.815-17.457-1.438-7.514 1.352-12.767 2.808-16.471 4.143l8.767 54.003 12.203-2.203L77.7 134.89c1.17.04 2.635-.146 4.254-.435 7.273-1.318 13.269-4.327 16.841-8.982 2.749-3.593 3.71-8.443 2.823-13.881-.863-5.36-3.865-9.5-7.775-11.552zm-13.517 24.932c-1.777.318-3.078.462-4.174.41l-2.619-16.154c.85-.409 2.525-.874 5.036-1.323 6.213-1.128 10.1 1.267 10.917 6.293.891 5.526-2.614 9.58-9.16 10.774z"/></svg>