<svg width="56" height="57" viewBox="0 0 56 57" fill="none" xmlns="http://www.w3.org/2000/svg">
<g clip-path="url(#clip0_5_6)">
<path d="M27.9994 56.9988C43.463 56.9988 55.9987 44.8074 55.9987 29.7687C55.9987 14.7299 43.463 2.53854 27.9994 2.53854C12.5357 2.53854 0 14.7299 0 29.7687C0 44.8074 12.5357 56.9988 27.9994 56.9988Z" fill="#FFE05C"/>
<path d="M27.4558 46.4811C24.0963 46.4863 20.8332 45.3892 18.1945 43.3671C15.126 45.4723 12.9233 48.5663 11.9767 52.1004C16.4871 55.1613 21.8243 56.8627 27.3226 56.9924C32.8208 57.1222 38.2366 55.6745 42.8943 52.8299C42.085 49.0662 39.8617 45.7312 36.6588 43.4767C34.0452 45.4296 30.8404 46.486 27.5445 46.4811H27.4558Z" fill="#441F4C"/>
<path d="M44.1728 24.9146C44.2032 24.9146 44.2336 24.9146 44.264 24.9257C44.2336 24.9208 44.2032 24.9183 44.1728 24.9146Z" fill="#F49D82"/>
<path d="M42.7701 24.9577C42.8005 24.9516 42.8322 24.9479 42.8626 24.943C42.8284 24.9479 42.8005 24.9516 42.7701 24.9577Z" fill="#F49D82"/>
<path d="M43.1806 24.9035L43.2757 24.8961L43.1806 24.9035Z" fill="#F49D82"/>
<path d="M43.9802 24.8925C44.0106 24.8925 44.0423 24.8925 44.0727 24.8998C44.0423 24.8998 44.0106 24.8986 43.9802 24.8925Z" fill="#F49D82"/>
<path d="M44.3641 24.9405C44.3932 24.9405 44.4237 24.9491 44.4528 24.9553C44.4237 24.9491 44.3932 24.9454 44.3641 24.9405Z" fill="#F49D82"/>
<path d="M42.5623 24.9972L42.6522 24.9787L42.5623 24.9972Z" fill="#F49D82"/>
<path d="M44.5529 24.975L44.6365 24.9923L44.5529 24.975Z" fill="#F49D82"/>
<path d="M44.1842 28.5018C43.7543 29.231 43.1969 29.8815 42.5369 30.4242V31.903C42.5369 31.9942 42.5369 32.0841 42.5369 32.1741C43.0033 32.1425 43.4631 32.05 43.9041 31.8993C46.2065 31.1155 47.6332 28.975 47.0909 27.118C46.8033 26.1321 46.0151 25.4211 44.9951 25.0921C45.0683 26.2809 44.7867 27.465 44.1842 28.5018V28.5018Z" fill="#F49D82"/>
<path d="M44.7417 25.0157L44.8177 25.0354L44.7417 25.0157Z" fill="#F49D82"/>
<path d="M42.9766 24.9257L43.0704 24.9146L42.9766 24.9257Z" fill="#F49D82"/>
<path d="M43.3846 24.8925L43.2757 24.8998L43.1806 24.9072L43.0704 24.9183L42.9766 24.9294L42.8626 24.9467C42.8322 24.9467 42.8005 24.9553 42.7701 24.9615L42.6522 24.9824L42.5623 25.0009L42.5357 25.0071V30.4292C43.1956 29.8865 43.753 29.2359 44.1829 28.5068C44.7841 27.4687 45.064 26.2837 44.9888 25.0946C44.9318 25.0761 44.8747 25.0588 44.8165 25.0428L44.7404 25.0231L44.6353 24.9972L44.5516 24.9799L44.4515 24.9602C44.4224 24.9602 44.392 24.9504 44.3628 24.9454C44.3337 24.9405 44.2969 24.9344 44.2627 24.9307C44.2285 24.927 44.2019 24.9233 44.1715 24.9196C44.1411 24.9159 44.1043 24.9109 44.0714 24.9085C44.0385 24.906 44.0093 24.9085 43.9789 24.9011L43.8763 24.8937H43.7825H43.6786H43.5886H43.4822L43.3846 24.8925Z" fill="#442521"/>
<path d="M10.9631 25.2436C11.0327 25.2338 11.1037 25.2252 11.1747 25.219C10.161 25.3102 9.274 25.7452 8.73421 26.5129C7.59381 28.1149 8.39082 30.5635 10.5082 31.9769C11.1095 32.383 11.7859 32.6721 12.5001 32.8284C12.4798 32.5216 12.4684 32.2123 12.4684 31.9005V31.3004C12.2042 30.9006 11.9728 30.4811 11.7765 30.0459C11.1087 28.5331 10.8296 26.8849 10.9631 25.2436V25.2436Z" fill="#F49D82"/>
<path d="M11.3711 25.2054L11.1911 25.2178C11.2507 25.2178 11.3102 25.2091 11.3711 25.2067V25.2054Z" fill="#F49D82"/>
<path d="M40.0851 39.8895C39.8684 40.2099 39.6403 40.5229 39.3983 40.8248C39.6403 40.5229 39.8684 40.2099 40.0851 39.8895Z" fill="#FCD1A6"/>
<path d="M39.0156 41.282C38.7622 41.577 38.4957 41.8612 38.2161 42.1348C36.6563 41.3301 35.616 39.8821 35.616 38.2296C35.616 35.7022 38.0488 33.6529 41.0493 33.6529C41.5066 33.6527 41.9625 33.7011 42.409 33.7971C42.3028 34.5901 42.1295 35.3732 41.8907 36.1384C41.9617 35.9141 42.0263 35.6874 42.0846 35.4582C43.0056 35.4047 43.9145 35.2263 44.7848 34.9283C49.1601 33.4397 51.873 29.3694 50.8429 25.8376C50.0458 23.1093 47.2481 21.5012 44.0004 21.5973C43.9916 21.6207 43.984 21.6441 43.9751 21.6663C43.9561 21.723 43.9358 21.7797 43.9143 21.8351C43.9067 21.8585 43.8978 21.8807 43.8889 21.9029C43.8661 21.962 43.8433 22.02 43.8193 22.0779C43.8117 22.0976 43.804 22.1161 43.7952 22.1358C43.7698 22.1962 43.7445 22.259 43.7179 22.3169L43.6976 22.3613C43.6685 22.4254 43.6393 22.4845 43.6076 22.5536L43.5962 22.5782C43.2295 23.3383 42.7477 24.0407 42.1669 24.662V24.662C42.0947 24.7384 42.0212 24.8148 41.9452 24.8888C41.9135 21.3952 38.6634 18.2343 35.0698 18.1924C35.5006 18.5766 35.8492 19.0395 36.0958 19.5548C36.3424 20.0702 36.482 20.6277 36.5068 21.1956C37.0389 21.4401 37.5033 21.8047 37.8613 22.259C38.0639 22.5201 38.209 22.819 38.2875 23.137C38.366 23.4551 38.3762 23.7854 38.3175 24.1075C38.4033 24.5028 38.3649 24.9142 38.2072 25.288C38.0488 25.6466 37.7219 25.9781 37.3202 25.9818C37.1101 25.9678 36.905 25.9129 36.7171 25.8204C35.5405 25.3488 34.2736 25.1286 33.0019 25.1747C32.1821 25.2055 31.2102 25.288 30.6996 24.6645C30.398 24.2948 30.3853 23.8228 30.4715 23.378C30.3968 23.0035 30.4213 22.6168 30.5425 22.2541C30.5885 22.0333 30.6743 21.8222 30.7959 21.6306C30.9266 21.4951 31.0816 21.384 31.2533 21.3028C31.71 21.0317 32.2103 20.8371 32.7333 20.7273C33.7994 20.5098 34.9069 20.5888 35.9289 20.9553C36.0557 20.9984 36.171 21.0464 36.2913 21.0982C34.9326 19.6237 33.108 18.6309 31.1051 18.2762C31.237 19.2495 31.7549 20.134 32.5483 20.7408C30.22 20.5342 27.9767 19.7865 26.0075 18.5609L27.6547 21.3792C25.9059 20.8371 24.304 19.9213 22.9664 18.6989C21.8425 17.6699 20.5411 16.4635 19.1106 15.9004C19.462 16.901 19.8138 17.9008 20.1661 18.8998C18.7046 17.8638 17.3134 16.7372 16.0011 15.527H15.9111C16.418 16.3896 16.6904 17.4062 16.513 18.3822C16.3242 19.4284 15.5373 20.402 14.4742 20.6423C14.9278 21.1795 15.3967 21.7513 15.6057 22.4044C15.6362 22.3576 15.6666 22.3133 15.6995 22.2689C16.1709 21.6441 16.8855 21.2288 17.6344 20.9639C18.656 20.5974 19.7631 20.5184 20.8288 20.7359C21.3523 20.8455 21.853 21.0401 22.31 21.3114C22.4812 21.393 22.6357 21.5041 22.7662 21.6392C22.8883 21.8307 22.9741 22.0418 23.0196 22.2627C23.1402 22.6256 23.1646 23.0121 23.0906 23.3866C23.1767 23.8314 23.1628 24.3059 22.8625 24.6731C22.3557 25.2966 21.3787 25.2141 20.5589 25.1833C19.2877 25.1374 18.0211 25.3576 16.845 25.829C16.6567 25.9217 16.4511 25.9766 16.2406 25.9904C15.8402 25.9904 15.512 25.6552 15.3536 25.2966C15.2959 25.17 15.2533 25.0372 15.2269 24.9011C14.5655 26.4267 13.5061 27.9079 12.457 29.2437V31.9055C12.457 32.2172 12.4684 32.5216 12.4887 32.8334C11.7745 32.6771 11.0981 32.3879 10.4968 31.9819C8.39082 30.561 7.60267 28.1174 8.7342 26.5129C9.2778 25.7452 10.166 25.3102 11.1747 25.219H11.1911L11.3711 25.2067C11.1802 24.0434 10.9884 22.8797 10.7958 21.7156C8.52513 21.6885 6.47621 22.5301 5.28893 24.2085C3.13484 27.2597 4.6351 31.9104 8.65057 34.5968C10.0006 35.5114 11.5503 36.1091 13.178 36.343C13.9233 38.6039 15.2246 40.6538 16.9692 42.3147C14.6073 40.0686 13.0768 37.125 12.6166 33.9437C13.2309 33.7521 13.8722 33.6552 14.5173 33.6566C15.4115 33.653 16.2954 33.8415 17.106 34.2086C16.613 33.9232 16.1825 33.5464 15.8389 33.0996V33.0996C15.7755 33.1476 15.5576 33.0219 15.2839 32.6806C14.7838 32.0037 14.5176 31.1899 14.5236 30.3565C14.5211 30.1281 14.5363 29.8999 14.5693 29.6738C14.6514 29.1713 14.817 28.6852 15.0596 28.2345C15.6342 27.1835 16.6038 26.3889 17.7662 26.0163C18.9241 25.6485 20.1824 25.7211 21.2875 26.2196C21.7608 26.4369 22.1917 26.7326 22.5609 27.0933C22.7268 27.254 22.8809 27.4257 23.0222 27.6072C23.1471 27.7771 23.2601 27.9549 23.3605 28.1396C23.6684 28.6853 23.8297 29.2978 23.8293 29.9202C23.8324 30.087 23.8094 30.2532 23.7609 30.4132C23.7267 30.5228 23.6887 30.5795 23.6468 30.5795C23.6466 31.2864 23.4639 31.9819 23.1154 32.6022C22.7668 33.2225 22.2637 33.7478 21.6521 34.1297C21.0405 34.5117 20.34 34.7382 19.615 34.7883C18.89 34.8385 18.1637 34.7108 17.5026 34.4169C18.9712 35.2351 19.9405 36.635 19.9405 38.237C19.9405 40.0189 18.7292 41.5642 16.9641 42.3184C17.3544 42.6905 17.7651 43.0418 18.1945 43.3708C20.8332 45.3929 24.0963 46.4901 27.4558 46.4848H27.5432C30.8391 46.4897 34.0439 45.4333 36.6575 43.4805C37.5231 42.8328 38.3137 42.0957 39.0156 41.282V41.282ZM43.6799 24.8789H43.7838H43.8775L43.9802 24.8863C44.0106 24.8863 44.0423 24.8863 44.0727 24.8937C44.1031 24.9011 44.1398 24.8937 44.1728 24.9048C44.2057 24.9159 44.2336 24.9048 44.264 24.9159C44.2944 24.927 44.3312 24.9257 44.3641 24.9307C44.3971 24.9356 44.4237 24.9393 44.4528 24.9454L44.5529 24.9652L44.6365 24.9824L44.7417 25.0083L44.8177 25.028C44.876 25.044 44.933 25.0613 44.9901 25.0798C46.0101 25.4088 46.7982 26.1174 47.0859 27.1057C47.6282 28.9627 46.1989 31.1032 43.8991 31.887C43.4581 32.0377 42.9982 32.1301 42.5319 32.1618C42.5319 32.0718 42.5319 31.9819 42.5319 31.8907V24.9898L42.5585 24.9836L42.6484 24.9652L42.7663 24.9442C42.7967 24.938 42.8284 24.9344 42.8588 24.9294L42.9728 24.9122L43.0666 24.9011L43.1768 24.89L43.2719 24.8826L43.3808 24.8752H43.4746H43.581L43.6799 24.8789ZM30.5273 27.8857C30.623 27.7096 30.731 27.5399 30.8504 27.378C30.9846 27.2037 31.1316 27.039 31.2901 26.8851C31.6426 26.5412 32.0537 26.2594 32.5052 26.052C33.1415 25.7558 33.8402 25.6084 34.5455 25.6217C35.2508 25.6349 35.9432 25.8085 36.5672 26.1285C37.1912 26.4484 37.7296 26.9059 38.1393 27.4644C38.5491 28.0229 38.8188 28.6668 38.9269 29.3448C38.959 29.5602 38.9735 29.7778 38.97 29.9954C38.9784 30.7915 38.7234 31.5691 38.2427 32.2135C37.9817 32.5389 37.7751 32.6584 37.7143 32.614C37.1947 33.2924 36.4686 33.7944 35.639 34.0487C34.8094 34.303 33.9185 34.2968 33.0928 34.0308C32.2671 33.7648 31.5485 33.2526 31.0391 32.5669C30.5297 31.8813 30.2553 31.057 30.2548 30.2111C30.2143 30.2111 30.1775 30.1568 30.1459 30.0521C30.0991 29.8999 30.0773 29.7414 30.0812 29.5826C30.0807 28.9906 30.2341 28.4082 30.5273 27.8894V27.8857ZM28.9092 34.5845C29.0222 34.7087 29.0876 34.8672 29.0942 35.033C29.0801 35.1398 29.0363 35.2408 28.9674 35.3251C28.5138 35.9499 27.5736 36.0965 26.8362 35.8451C26.4674 35.7219 25.9593 35.3929 25.9048 34.9764C25.8567 34.6128 26.214 34.1667 26.4649 33.9301C26.6349 33.7652 26.8484 33.6492 27.082 33.595C27.45 33.5323 27.8287 33.6129 28.1362 33.8192C28.4404 34.0271 28.7024 34.2878 28.9092 34.5882V34.5845ZM30.0394 42.2703C30.0483 42.698 30.0394 43.1699 29.7366 43.4854C29.6792 43.5452 29.614 43.5974 29.5427 43.6407V43.6407C29.4097 43.7188 29.2619 43.7704 29.1081 43.7922H29.0992C29.0701 43.7922 29.0397 43.8009 29.0105 43.8033H29.0004L28.9092 43.8095C28.7823 43.8141 28.6552 43.8096 28.529 43.7959H28.4973L28.4289 43.7873H28.3858L28.3237 43.7787L28.2718 43.7701L28.2173 43.7614L28.154 43.7503L28.1121 43.7417L28.0095 43.722C27.5191 43.6234 27.0034 43.5113 26.636 43.1822C26.593 43.1439 26.5527 43.1027 26.5156 43.059C26.1899 42.6893 26.0683 42.1705 26.0087 41.6776C25.8955 40.6978 25.9763 39.706 26.247 38.7558C26.3138 38.5317 26.4123 38.3177 26.5397 38.12C26.5587 38.0892 26.5789 38.0596 26.5992 38.0312L26.6195 38.0017L26.6638 37.9413C26.6727 37.9302 26.6803 37.9191 26.6892 37.9092C26.698 37.8994 26.7196 37.871 26.7348 37.8513L26.7589 37.8217L26.8172 37.7564L26.8324 37.7392L26.9084 37.6603L26.9312 37.6381C26.9497 37.6195 26.9691 37.6018 26.9895 37.5851C26.9986 37.5755 27.0083 37.5664 27.0186 37.558L27.0731 37.5112L27.1035 37.4866L27.1656 37.4385C27.1731 37.4321 27.1811 37.4263 27.1897 37.4212C27.2176 37.3991 27.2467 37.3793 27.2771 37.3596L27.2961 37.3485C27.3189 37.3325 27.343 37.319 27.3671 37.3042L27.3988 37.2869L27.4608 37.2537L27.4951 37.2364L27.5597 37.2068L27.5901 37.1933L27.6864 37.1575L27.7827 37.1292L27.8144 37.1218L27.8828 37.1058L27.9183 37.0996L27.9867 37.0898H28.0196H28.102H28.121C28.1552 37.0898 28.1894 37.0898 28.2224 37.0898H28.2503C28.2753 37.0909 28.3002 37.0934 28.325 37.0972H28.3618L28.4302 37.1107L28.4657 37.1193L28.5404 37.1427L28.5683 37.1514C28.6034 37.1628 28.6376 37.1764 28.6709 37.192L28.6899 37.2007L28.7723 37.2426L28.8065 37.261L28.8749 37.3029L28.9104 37.3276L28.9801 37.3781L29.0105 37.4015C29.0435 37.4286 29.0777 37.4558 29.1094 37.4866C29.1418 37.5158 29.1727 37.5467 29.2019 37.579L29.2323 37.6123L29.2855 37.6751L29.3197 37.7195L29.3602 37.7749C29.3716 37.7922 29.3843 37.8094 29.3957 37.8279L29.4261 37.876C29.4375 37.8969 29.4502 37.9179 29.4629 37.9388C29.4756 37.9598 29.4743 37.9598 29.4794 37.9709C29.7328 38.4342 29.8088 38.9912 29.8658 39.5001C29.9672 40.4194 30.0191 41.3474 30.0394 42.274V42.2703Z" fill="#FCD1A6"/>
<path d="M40.4107 39.3855C40.3102 39.5498 40.2067 39.7104 40.1003 39.8674C40.2067 39.7088 40.3102 39.5482 40.4107 39.3855Z" fill="#FCD1A6"/>
<path d="M40.9797 38.3726C40.8048 38.7151 40.6168 39.0499 40.4158 39.3769C40.6177 39.0499 40.8056 38.7151 40.9797 38.3726Z" fill="#FCD1A6"/>
<path d="M41.688 36.7484C41.557 37.1082 41.4126 37.4615 41.2546 37.8082C41.4117 37.4623 41.5562 37.109 41.688 36.7484Z" fill="#FCD1A6"/>
<path d="M41.2445 37.8316C41.1651 38.0025 41.0827 38.1725 40.9974 38.3417C41.0827 38.1709 41.1651 38.0008 41.2445 37.8316Z" fill="#FCD1A6"/>
<path d="M41.8831 36.1655C41.8261 36.3454 41.7665 36.5229 41.7032 36.6991C41.7665 36.5229 41.8261 36.3454 41.8831 36.1655Z" fill="#FCD1A6"/>
<path d="M39.397 40.8261C39.2762 40.9772 39.1525 41.1263 39.0258 41.2734C39.1525 41.1272 39.2762 40.9781 39.397 40.8261Z" fill="#FCD1A6"/>
<path d="M19.9405 38.2333C19.9405 36.6375 18.9712 35.2339 17.5026 34.4132C17.3632 34.3508 17.2276 34.2818 17.0959 34.2062C16.2853 33.839 15.4013 33.6505 14.5072 33.6541C13.8621 33.6527 13.2207 33.7496 12.6065 33.9412C13.0666 37.1226 14.5972 40.0661 16.959 42.3123V42.3123C18.7292 41.5581 19.9405 40.0152 19.9405 38.2333Z" fill="#F49D82"/>
<path d="M42.409 33.8007C41.9641 33.7051 41.51 33.6567 41.0544 33.6566C38.0539 33.6566 35.621 35.7059 35.621 38.2333C35.621 39.8858 36.6613 41.3338 38.2212 42.1385C38.4999 41.8649 38.7664 41.5807 39.0207 41.2857L39.0308 41.2734C39.1575 41.1263 39.2813 40.9772 39.4021 40.8261C39.6441 40.5242 39.8722 40.2099 40.0889 39.8908L40.1041 39.8686C40.2105 39.71 40.314 39.5494 40.4145 39.3867V39.3781C40.6164 39.0495 40.8044 38.7147 40.9784 38.3738L40.9961 38.3393C41.0806 38.1701 41.163 38 41.2432 37.8291L41.2508 37.8094C41.4096 37.4635 41.5541 37.1103 41.6842 36.7496C41.6842 36.7336 41.6956 36.7176 41.7019 36.7003C41.7653 36.5241 41.8286 36.3467 41.8818 36.1667L41.8894 36.1396C42.1285 35.3752 42.3023 34.5929 42.409 33.8007V33.8007Z" fill="#F49D82"/>
<path d="M27.0833 33.5986C26.8497 33.6529 26.6361 33.7689 26.4662 33.9338C26.2127 34.1704 25.858 34.6165 25.9061 34.98C25.9606 35.3966 26.4687 35.7194 26.8374 35.8488C27.58 36.0953 28.5151 35.9536 28.9687 35.3288C29.0376 35.2445 29.0814 35.1435 29.0954 35.0367C29.0889 34.8709 29.0235 34.7124 28.9104 34.5882C28.7037 34.2892 28.4421 34.0298 28.1388 33.8229C27.8309 33.6162 27.4517 33.5357 27.0833 33.5986V33.5986Z" fill="#F49D82"/>
<path d="M37.3203 25.1537C37.1099 25.1399 36.9047 25.0845 36.7171 24.991C35.5403 24.5205 34.2735 24.3007 33.0019 24.3465C32.1821 24.3774 31.2102 24.4599 30.6996 23.8351C30.5906 23.7019 30.5127 23.5471 30.4715 23.3817C30.3854 23.8265 30.398 24.3009 30.6996 24.6682C31.2064 25.2917 32.1821 25.2092 33.0019 25.1783C34.2736 25.1323 35.5406 25.3525 36.7171 25.8241C36.905 25.9166 37.1101 25.9715 37.3203 25.9855C37.7219 25.9855 38.0488 25.6503 38.2072 25.2917C38.365 24.9179 38.4034 24.5065 38.3175 24.1112C38.2925 24.2306 38.2556 24.3474 38.2072 24.4599C38.0488 24.8185 37.7219 25.1488 37.3203 25.1537Z" fill="#F49D82"/>
<path d="M20.5589 24.3465C19.2878 24.3008 18.0214 24.5206 16.845 24.991C16.657 25.0847 16.4513 25.14 16.2406 25.1537C15.8604 25.1537 15.5551 24.8604 15.3865 24.5289C15.3599 24.5992 15.3308 24.6694 15.3029 24.7384C15.275 24.8074 15.256 24.8432 15.2332 24.8961C15.2597 25.0323 15.3022 25.165 15.3599 25.2917C15.517 25.6503 15.8452 25.9818 16.2469 25.9855C16.4575 25.9717 16.663 25.9168 16.8513 25.8241C18.0274 25.3526 19.294 25.1324 20.5652 25.1783C21.385 25.2092 22.3582 25.2917 22.8688 24.6682C23.1691 24.2985 23.1831 23.8265 23.0969 23.3817C23.0557 23.5471 22.9779 23.7019 22.8688 23.8351C22.3518 24.4599 21.3787 24.3774 20.5589 24.3465Z" fill="#F49D82"/>
<path d="M37.8436 32.0102C38.0106 31.5337 38.0999 31.0348 38.1084 30.5315C38.1092 30.3694 38.0978 30.2076 38.0742 30.0472C38.0551 29.8745 38.0242 29.7032 37.9817 29.5345C37.882 29.1686 37.7293 28.8184 37.528 28.4945C37.0663 27.76 36.3522 27.2081 35.5121 26.9368C34.6711 26.6708 33.761 26.6982 32.9386 27.0145C32.5765 27.1538 32.2391 27.3476 31.9388 27.5887C31.7997 27.6981 31.6672 27.8154 31.5422 27.9399C31.4301 28.0577 31.3243 28.1811 31.2254 28.3096C30.9206 28.7177 30.6853 29.1708 30.5285 29.6516C30.4588 29.8253 30.4233 29.9671 30.379 30.0644C30.3346 30.1618 30.2941 30.2148 30.2523 30.2148C30.2527 31.0607 30.5271 31.885 31.0366 32.5706C31.546 33.2563 32.2646 33.7685 33.0903 34.0345C33.916 34.3004 34.8069 34.3067 35.6364 34.0524C36.466 33.7981 37.1922 33.2961 37.7118 32.6177C37.6472 32.5697 37.727 32.3627 37.8436 32.0102ZM34.3932 33.1254C33.8012 33.1254 33.2225 32.9547 32.7303 32.6348C32.2381 32.3149 31.8545 31.8603 31.628 31.3283C31.4015 30.7964 31.3423 30.2111 31.4579 29.6465C31.5735 29.0818 31.8586 28.5632 32.2773 28.1561C32.696 27.7491 33.2294 27.472 33.8101 27.3598C34.3907 27.2477 34.9926 27.3055 35.5394 27.526C36.0863 27.7465 36.5536 28.1197 36.8823 28.5986C37.2111 29.0774 37.3864 29.6403 37.3861 30.216C37.3858 30.9877 37.0703 31.7278 36.5091 32.2734C35.9478 32.819 35.1868 33.1254 34.3932 33.1254V33.1254Z" fill="white"/>
<path d="M34.3932 27.3053C33.8013 27.3053 33.2226 27.476 32.7305 27.7958C32.2383 28.1157 31.8547 28.5703 31.6281 29.1021C31.4016 29.634 31.3423 30.2192 31.4578 30.7838C31.5733 31.3485 31.8584 31.8671 32.2769 32.2742C32.6955 32.6812 33.2288 32.9584 33.8093 33.0708C34.3899 33.1831 34.9917 33.1254 35.5386 32.9051C36.0854 32.6848 36.5529 32.3117 36.8817 31.8331C37.2106 31.3544 37.3861 30.7917 37.3861 30.216C37.3861 29.444 37.0708 28.7037 36.5095 28.1578C35.9483 27.612 35.187 27.3053 34.3932 27.3053ZM37.1505 30.009C37.1507 30.2094 37.0898 30.4053 36.9755 30.5721C36.8612 30.7388 36.6987 30.8688 36.5084 30.9457C36.3181 31.0225 36.1086 31.0428 35.9065 31.0038C35.7043 30.9649 35.5186 30.8685 35.3728 30.7269C35.2271 30.5853 35.1277 30.4048 35.0874 30.2083C35.0471 30.0117 35.0677 29.808 35.1465 29.6228C35.2253 29.4377 35.3588 29.2794 35.5301 29.168C35.7014 29.0567 35.9028 28.9972 36.1089 28.9972C36.3849 28.9972 36.6496 29.1038 36.8449 29.2935C37.0402 29.4832 37.1501 29.7405 37.1505 30.009V30.009Z" fill="#442521"/>
<path d="M36.8452 30.7253C37.252 30.3297 37.252 29.6883 36.8452 29.2927C36.4385 28.8972 35.779 28.8972 35.3722 29.2927C34.9655 29.6883 34.9655 30.3297 35.3722 30.7253C35.779 31.1209 36.4385 31.1209 36.8452 30.7253Z" fill="white"/>
<path d="M30.2548 30.216C30.2941 30.216 30.3359 30.163 30.3816 30.0657C30.4272 29.9683 30.4614 29.8266 30.5311 29.6528C30.6878 29.1721 30.9231 28.7189 31.228 28.3109C31.3269 28.1824 31.4326 28.059 31.5448 27.9412C31.6698 27.8167 31.8022 27.6994 31.9414 27.59C32.2417 27.3489 32.579 27.1551 32.9411 27.0157C33.7636 26.6995 34.6736 26.672 35.5146 26.9381C36.3547 27.2094 37.0689 27.7612 37.5306 28.4957C37.7318 28.8197 37.8846 29.1699 37.9842 29.5358C38.0268 29.7045 38.0577 29.8757 38.0767 30.0484C38.1003 30.2088 38.1118 30.3707 38.1109 30.5327C38.1025 31.036 38.0131 31.535 37.8461 32.0115C37.7295 32.3639 37.6497 32.5709 37.7194 32.6202C37.7802 32.6646 37.9868 32.5451 38.2478 32.2197C38.7285 31.5753 38.9835 30.7977 38.9751 30.0016C38.9785 29.7839 38.9641 29.5664 38.932 29.3509C38.853 28.8698 38.6938 28.4045 38.4607 27.9732C37.9112 26.9708 36.9864 26.2124 35.8778 25.855C34.7691 25.4975 33.5615 25.5686 32.5052 26.0533C32.0538 26.2606 31.6426 26.5425 31.2901 26.8863C31.1316 27.0402 30.9847 27.2049 30.8504 27.3792C30.731 27.5412 30.623 27.7108 30.5273 27.887C30.2333 28.4072 30.0799 28.9915 30.0813 29.5851C30.0773 29.7439 30.0991 29.9023 30.1459 30.0546C30.1776 30.1618 30.2143 30.216 30.2548 30.216Z" fill="#442521"/>
<path d="M19.307 34.7977C19.8768 34.7978 20.4411 34.6888 20.9677 34.4768C21.4942 34.2649 21.9726 33.9541 22.3756 33.5623C22.7787 33.1704 23.0983 32.7053 23.3165 32.1933C23.5346 31.6813 23.6468 31.1325 23.6468 30.5783C23.605 30.5783 23.5607 30.5228 23.5201 30.4205C23.4796 30.3183 23.4378 30.1741 23.3643 29.988C23.1998 29.4838 22.9529 29.0086 22.6331 28.5807C22.5294 28.4447 22.4186 28.3139 22.3012 28.1889C22.1705 28.0575 22.0317 27.9341 21.8856 27.8192C21.5709 27.5664 21.2173 27.3634 20.8377 27.2178C19.9757 26.8858 19.0217 26.8566 18.14 27.1352C17.2591 27.4199 16.5103 27.9988 16.0264 28.7693C15.8154 29.1085 15.6554 29.4753 15.5513 29.8586C15.5065 30.0354 15.4739 30.2149 15.4537 30.3959C15.4297 30.5641 15.4178 30.7338 15.4182 30.9036C15.4265 31.4328 15.5197 31.9575 15.6945 32.4588C15.8212 32.8285 15.901 33.0453 15.8313 33.0959C16.1749 33.5427 16.6054 33.9195 17.0984 34.2049C17.2302 34.2797 17.3658 34.3487 17.5052 34.412C18.0703 34.6649 18.6849 34.7964 19.307 34.7977V34.7977ZM16.1696 30.5783C16.1696 29.9748 16.3536 29.3849 16.6984 28.8831C17.0431 28.3814 17.5331 27.9903 18.1064 27.7594C18.6796 27.5284 19.3105 27.468 19.9191 27.5857C20.5276 27.7035 21.0867 27.9941 21.5254 28.4208C21.9642 28.8475 22.263 29.3912 22.3841 29.983C22.5051 30.5749 22.443 31.1884 22.2055 31.7459C21.9681 32.3034 21.5659 32.78 21.05 33.1152C20.5341 33.4505 19.9275 33.6294 19.307 33.6294C18.4749 33.6294 17.6769 33.308 17.0885 32.7358C16.5002 32.1636 16.1696 31.3875 16.1696 30.5783V30.5783Z" fill="white"/>
<path d="M22.4443 30.5783C22.4443 29.9748 22.2603 29.3849 21.9156 28.8831C21.5709 28.3814 21.0809 27.9903 20.5076 27.7594C19.9343 27.5284 19.3035 27.468 18.6949 27.5857C18.0863 27.7035 17.5273 27.9941 17.0885 28.4208C16.6498 28.8475 16.351 29.3912 16.2299 29.983C16.1088 30.5749 16.171 31.1884 16.4084 31.7459C16.6459 32.3034 17.048 32.78 17.564 33.1152C18.0799 33.4505 18.6865 33.6294 19.307 33.6294C19.719 33.6296 20.1271 33.5508 20.5078 33.3975C20.8885 33.2442 21.2344 33.0195 21.5258 32.7361C21.8172 32.4528 22.0483 32.1164 22.2059 31.7461C22.3635 31.3758 22.4445 30.979 22.4443 30.5783ZM21.2241 29.346C21.4171 29.346 21.6057 29.4016 21.7662 29.5059C21.9266 29.6102 22.0517 29.7583 22.1255 29.9317C22.1994 30.1051 22.2187 30.2959 22.181 30.48C22.1434 30.664 22.0505 30.8331 21.914 30.9658C21.7776 31.0985 21.6037 31.1889 21.4145 31.2255C21.2252 31.2621 21.029 31.2433 20.8507 31.1715C20.6725 31.0997 20.5201 30.9781 20.4129 30.822C20.3057 30.666 20.2484 30.4825 20.2484 30.2948C20.2483 30.1701 20.2734 30.0466 20.3224 29.9314C20.3713 29.8161 20.4432 29.7113 20.5338 29.6231C20.6244 29.5349 20.732 29.4649 20.8505 29.4171C20.9689 29.3693 21.0959 29.3447 21.2241 29.3447V29.346Z" fill="#442521"/>
<path d="M21.2241 31.2425C21.763 31.2425 22.1998 30.8177 22.1998 30.2936C22.1998 29.7696 21.763 29.3447 21.2241 29.3447C20.6853 29.3447 20.2484 29.7696 20.2484 30.2936C20.2484 30.8177 20.6853 31.2425 21.2241 31.2425Z" fill="white"/>
<path d="M15.6894 32.46C15.5146 31.9588 15.4214 31.434 15.4131 30.9048C15.4128 30.735 15.4246 30.5654 15.4486 30.3971C15.4688 30.2161 15.5014 30.0366 15.5462 29.8598C15.6503 29.4765 15.8103 29.1097 16.0214 28.7705C16.5052 28.0001 17.254 27.4212 18.1349 27.1365C19.0166 26.8579 19.9706 26.8871 20.8326 27.219C21.2122 27.3646 21.5659 27.5676 21.8805 27.8204C22.0266 27.9353 22.1654 28.0588 22.2961 28.1901C22.4135 28.3152 22.5243 28.446 22.6281 28.582C22.9479 29.0099 23.1947 29.485 23.3592 29.9892C23.4327 30.1716 23.4694 30.3207 23.5151 30.4218C23.5607 30.5228 23.605 30.5795 23.6418 30.5795C23.6785 30.5795 23.7216 30.5228 23.7558 30.4132C23.8043 30.2532 23.8274 30.087 23.8242 29.9202C23.8246 29.2978 23.6633 28.6853 23.3554 28.1396C23.255 27.9549 23.142 27.7771 23.0171 27.6072C22.8758 27.4257 22.7217 27.254 22.5559 27.0933C22.1881 26.733 21.759 26.4374 21.2875 26.2196C20.1787 25.7156 18.9142 25.6412 17.751 26.0114C16.5886 26.384 15.619 27.1786 15.0444 28.2295C14.8018 28.6803 14.6362 29.1664 14.554 29.6688C14.5211 29.895 14.5059 30.1232 14.5084 30.3515C14.5023 31.185 14.7686 31.9988 15.2687 32.6756C15.5424 33.017 15.7603 33.1427 15.8237 33.0946C15.8959 33.0466 15.8123 32.8285 15.6894 32.46Z" fill="#442521"/>
<path d="M44.4173 19.6761C44.4173 19.7229 44.4072 19.7685 44.4021 19.8154C44.4072 19.7685 44.4135 19.7229 44.4173 19.6761Z" fill="#442521"/>
<path d="M44.4401 19.4198L44.4287 19.5566L44.4401 19.4198Z" fill="#442521"/>
<path d="M44.4477 18.3896C44.4477 18.4303 44.4477 18.4722 44.4477 18.5128C44.4516 18.4722 44.4503 18.4303 44.4477 18.3896Z" fill="#442521"/>
<path d="M44.4541 19.1623L44.4465 19.2966L44.4541 19.1623Z" fill="#442521"/>
<path d="M44.4579 18.6472C44.4579 18.6903 44.4579 18.7322 44.4579 18.7704C44.4591 18.731 44.4591 18.6903 44.4579 18.6472Z" fill="#442521"/>
<path d="M44.3489 20.1851C44.3413 20.2343 44.3337 20.2824 44.3248 20.3305C44.335 20.2824 44.3489 20.2343 44.3489 20.1851Z" fill="#442521"/>
<path d="M44.4604 18.9047C44.4604 18.9491 44.4604 18.9922 44.4604 19.0353C44.4579 18.9922 44.4592 18.9491 44.4604 18.9047Z" fill="#442521"/>
<path d="M44.3882 19.9312C44.3818 19.9793 44.3755 20.0261 44.3679 20.0742C44.3755 20.0261 44.3818 19.9793 44.3882 19.9312Z" fill="#442521"/>
<path d="M44.3058 20.4377C44.2957 20.487 44.2868 20.5375 44.2754 20.5868C44.2868 20.5375 44.2957 20.487 44.3058 20.4377Z" fill="#442521"/>
<path d="M44.0537 21.426C44.0359 21.4814 44.0182 21.5357 43.9992 21.5899C44.0182 21.5357 44.0359 21.4814 44.0537 21.426Z" fill="#442521"/>
<path d="M45.2676 10.7863C45.1746 10.864 45.0954 10.956 45.0331 11.0586C45.0954 10.956 45.1746 10.864 45.2676 10.7863C45.5045 10.5694 45.7453 10.3427 45.9759 10.1061C45.7427 10.3427 45.5045 10.5694 45.2676 10.7863Z" fill="#442521"/>
<path d="M44.1272 21.1832C44.112 21.2362 44.0967 21.2904 44.0803 21.3422C44.0955 21.2904 44.112 21.2362 44.1272 21.1832Z" fill="#442521"/>
<path d="M44.1943 20.9368C44.1804 20.9898 44.1677 21.0403 44.1525 21.092C44.1677 21.0403 44.1804 20.9898 44.1943 20.9368Z" fill="#442521"/>
<path d="M44.2539 20.6891C44.2425 20.7396 44.2298 20.7901 44.2184 20.8407C44.2298 20.7901 44.2425 20.7396 44.2539 20.6891Z" fill="#442521"/>
<path d="M44.9825 7.94217C44.8557 7.94217 44.729 7.94956 44.6023 7.94217C44.729 7.94956 44.8557 7.94833 44.9825 7.94217Z" fill="#442521"/>
<path d="M44.43 18.132C44.43 18.1715 44.43 18.2109 44.4389 18.2553C44.4351 18.2109 44.4338 18.1715 44.43 18.132Z" fill="#442521"/>
<path d="M47.4508 7.27057C47.4509 7.36483 47.4458 7.45902 47.4356 7.55276C47.4458 7.45902 47.4509 7.36483 47.4508 7.27057V7.27057Z" fill="#442521"/>
<path d="M47.4014 7.77335C47.3711 7.92541 47.3287 8.07496 47.2747 8.22067C47.3287 8.07496 47.3711 7.92541 47.4014 7.77335Z" fill="#442521"/>
<path d="M41.8337 5.00189C42.0149 5.13868 42.1923 5.28286 42.3633 5.43196C42.1948 5.28162 42.0149 5.13868 41.8337 5.00189Z" fill="#442521"/>
<path d="M42.0985 7.22003C42.3099 7.35268 42.5324 7.46769 42.7637 7.56385C42.5324 7.46769 42.3099 7.35268 42.0985 7.22003V7.22003Z" fill="#442521"/>
<path d="M46.503 9.52692C46.4042 9.65015 46.3003 9.76598 46.1938 9.88305C46.2939 9.76598 46.3978 9.64768 46.503 9.52692Z" fill="#442521"/>
<path d="M42.414 5.47879C42.4825 5.53917 42.5496 5.60202 42.6168 5.6624C42.5496 5.59956 42.4825 5.54533 42.414 5.47879Z" fill="#442521"/>
<path d="M42.7637 7.56384C42.9693 7.64944 43.1811 7.72028 43.3973 7.7758C43.1811 7.72028 42.9693 7.64944 42.7637 7.56384Z" fill="#442521"/>
<path d="M44.3679 17.6219C44.3742 17.6564 44.378 17.6921 44.3831 17.7266C44.378 17.6884 44.3742 17.6527 44.3679 17.6219Z" fill="#442521"/>
<path d="M44.3248 17.3631L44.34 17.4494L44.3248 17.3631Z" fill="#442521"/>
<path d="M46.0392 17.6219C45.9227 17.58 45.8036 17.543 45.6832 17.5073C45.8036 17.5455 45.9227 17.5824 46.0392 17.6219Z" fill="#442521"/>
<path d="M44.4034 17.8745L44.4148 17.9879L44.4034 17.8745Z" fill="#442521"/>
<path d="M46.5955 17.8683C46.4175 17.7713 46.2314 17.6888 46.0392 17.6219C46.2314 17.6888 46.4175 17.7713 46.5955 17.8683V17.8683Z" fill="#442521"/>
<path d="M45.5666 12.3636C45.7111 12.6372 45.8403 12.9194 45.9569 13.2053C45.8403 12.9194 45.7111 12.6372 45.5666 12.3636Z" fill="#442521"/>
<path d="M46.3902 14.5485C46.4042 14.604 46.4168 14.6582 46.4295 14.7136C46.4168 14.6644 46.4042 14.604 46.3902 14.5485Z" fill="#442521"/>
<path d="M43.6951 22.3613C43.6659 22.4254 43.6368 22.4845 43.6051 22.5535C43.6368 22.4907 43.6659 22.4278 43.6951 22.3613Z" fill="#442521"/>
<path d="M43.9688 21.6663C43.9498 21.723 43.9295 21.7797 43.908 21.8351C43.9333 21.7797 43.9536 21.723 43.9688 21.6663Z" fill="#442521"/>
<path d="M43.8864 21.9029C43.8636 21.962 43.8408 22.02 43.8167 22.0779C43.8421 22.02 43.8636 21.962 43.8864 21.9029Z" fill="#442521"/>
<path d="M43.7926 22.1358C43.7673 22.1962 43.742 22.259 43.7153 22.317C43.742 22.2566 43.7673 22.1962 43.7926 22.1358Z" fill="#442521"/>
<path d="M11.3711 25.2067C11.3102 25.2067 11.2507 25.2067 11.1911 25.2178H11.1747C11.1037 25.2178 11.0327 25.2326 10.963 25.2424C10.8273 26.8845 11.1048 28.534 11.7715 30.0484C11.9679 30.4828 12.1992 30.9014 12.4633 31.3004V29.2388C13.5125 27.903 14.5718 26.4217 15.2332 24.8961C15.256 24.8432 15.2801 24.7914 15.3029 24.7384C15.3257 24.6854 15.3599 24.5992 15.3865 24.5289C15.5551 24.8604 15.8655 25.1451 16.2406 25.1537C16.4513 25.14 16.657 25.0847 16.845 24.991C18.0214 24.5206 19.2878 24.3008 20.5589 24.3465C21.3787 24.3773 22.3518 24.4599 22.8625 23.8351C22.9715 23.7019 23.0494 23.5471 23.0906 23.3816C23.1646 23.0072 23.1402 22.6206 23.0196 22.2578C22.9741 22.0369 22.8883 21.8257 22.7662 21.6342C22.6357 21.4991 22.4812 21.3881 22.31 21.3065C21.853 21.0351 21.3522 20.8406 20.8288 20.731C19.7631 20.5135 18.656 20.5925 17.6344 20.9589C16.8855 21.2239 16.1709 21.6392 15.6995 22.264C15.6666 22.3083 15.6362 22.3527 15.6057 22.3995C15.3967 21.7464 14.9278 21.1746 14.4742 20.6373C15.5373 20.397 16.3242 19.4235 16.513 18.3773C16.6904 17.4013 16.4116 16.3908 15.9111 15.522C15.8756 15.4604 15.8389 15.3988 15.8021 15.3397L16.0011 15.522C17.3116 16.7333 18.7012 17.8612 20.161 18.8985C19.8088 17.8987 19.4569 16.8989 19.1055 15.8991C20.5361 16.4623 21.8374 17.6687 22.9613 18.6977C24.2989 19.92 25.9008 20.8358 27.6496 21.3779L26.0024 18.5597C27.9717 19.7853 30.2149 20.5329 32.5432 20.7396C31.7499 20.1327 31.2319 19.2482 31.1 18.275C33.1029 18.6297 34.9275 19.6225 36.2863 21.097C36.1659 21.0452 36.0455 20.9971 35.9239 20.954C34.9018 20.5875 33.7943 20.5085 32.7282 20.726C32.2052 20.8359 31.7049 21.0304 31.2482 21.3015C31.0765 21.3828 30.9215 21.4939 30.7908 21.6293C30.6692 21.821 30.5834 22.0321 30.5374 22.2529C30.4162 22.6156 30.3918 23.0023 30.4664 23.3767C30.5076 23.5422 30.5855 23.697 30.6945 23.8302C31.2014 24.455 32.177 24.3724 32.9968 24.3416C34.2684 24.2958 35.5352 24.5155 36.712 24.9861C36.8996 25.0796 37.1048 25.1349 37.3152 25.1488C37.7168 25.1488 38.0438 24.8136 38.2021 24.455C38.2505 24.3425 38.2874 24.2257 38.3124 24.1062C38.3711 23.7842 38.3609 23.4538 38.2824 23.1358C38.204 22.8177 38.0589 22.5188 37.8562 22.2578C37.4995 21.8045 37.0369 21.4404 36.5067 21.1955C36.4822 20.6269 36.3424 20.0685 36.0953 19.5525C35.8483 19.0366 35.499 18.5731 35.0673 18.1887C38.6608 18.2257 41.9097 21.3927 41.9427 24.8851C42.0187 24.8111 42.0922 24.7347 42.1644 24.6583C42.7625 22.8764 42.912 20.9306 42.1644 19.2263C41.3395 17.3606 39.5339 16.0371 37.5863 15.3052C35.6388 14.5732 33.5316 14.3588 31.4535 14.1493C33.4738 13.3078 35.6402 12.8478 37.8372 12.7937C34.3267 12.5826 30.8882 11.7324 27.7003 10.2872C30.6715 10.5367 33.6432 9.81319 36.1431 8.23176C34.5492 7.9694 32.921 7.97231 31.3281 8.24039C34.5189 6.36656 38.1199 5.25268 41.8375 4.98958C39.0498 2.89467 35.0584 2.34507 31.8273 3.74003C32.1931 2.49623 32.5614 1.24955 32.9322 0C29.4426 3.03924 25.1858 5.12297 20.5969 6.03827L21.679 3.45783C17.6128 4.05303 14.0903 7.28659 13.2502 11.2041C12.3632 10.2737 10.6171 10.8738 10.0165 11.9989C9.41591 13.124 9.60597 14.4758 9.81125 15.7266L10.7958 21.7143C10.9867 22.8776 11.1785 24.0413 11.3711 25.2054V25.2067Z" fill="#442521"/>
<path d="M42.1644 24.662C42.7434 24.0404 43.2234 23.338 43.5886 22.5782C43.2234 23.338 42.7434 24.0404 42.1644 24.662V24.662Z" fill="#442521"/>
<path d="M36.1368 8.24286C33.6369 9.82429 30.6652 10.5478 27.694 10.2983C30.8819 11.7435 34.3204 12.5937 37.8309 12.8048C35.6339 12.8589 33.4674 13.3189 31.4472 14.1604C33.5252 14.3699 35.6287 14.5843 37.58 15.3163C39.5314 16.0482 41.3332 17.3717 42.1581 19.2374C42.9095 20.9417 42.76 22.8875 42.1581 24.6694C42.7399 24.0459 43.2222 23.341 43.5886 22.5782L43.6001 22.5536C43.6317 22.4907 43.6609 22.4303 43.69 22.3613L43.7103 22.317C43.7369 22.2566 43.7622 22.1937 43.7876 22.1358C43.7965 22.1161 43.8041 22.0976 43.8117 22.0779C43.8357 22.02 43.8585 21.9621 43.8814 21.9029C43.8902 21.8807 43.8991 21.8585 43.9067 21.8351C43.9282 21.7797 43.9485 21.723 43.9675 21.6663C43.9764 21.6441 43.984 21.6207 43.9929 21.5973V21.5899C44.0119 21.5357 44.0296 21.4815 44.0473 21.426L44.074 21.3422C44.0904 21.2905 44.1056 21.2362 44.1208 21.1832C44.1297 21.1537 44.1386 21.1229 44.1462 21.0921C44.1614 21.0403 44.1741 20.9898 44.188 20.9368C44.1956 20.9047 44.2045 20.8727 44.2121 20.8407C44.2235 20.7901 44.2361 20.7396 44.2475 20.6891C44.259 20.6386 44.2628 20.6201 44.2691 20.5868C44.2754 20.5535 44.2894 20.487 44.2995 20.4377C44.3096 20.3884 44.3134 20.3662 44.3198 20.3305C44.3261 20.2948 44.3362 20.2344 44.3438 20.1851C44.3514 20.1358 44.3565 20.1111 44.3616 20.0742C44.3667 20.0372 44.3755 19.9793 44.3819 19.9312C44.3882 19.8832 44.392 19.8536 44.3958 19.8154C44.3996 19.7772 44.4072 19.723 44.411 19.6761L44.4224 19.5529L44.4338 19.4161C44.4338 19.3755 44.4338 19.3336 44.4338 19.2929L44.4414 19.1586V19.0353C44.4414 18.9922 44.4414 18.9491 44.4414 18.9047C44.4414 18.8604 44.4414 18.8185 44.4414 18.7815C44.4414 18.7445 44.4414 18.6965 44.4414 18.6583C44.4414 18.6201 44.4414 18.5695 44.4414 18.5239C44.4414 18.4783 44.4414 18.4414 44.4414 18.4007C44.4414 18.36 44.4414 18.3083 44.4325 18.2627C44.4237 18.2171 44.4325 18.1826 44.4237 18.1395L44.4085 17.9953L44.3971 17.8819C44.3907 17.8314 44.3831 17.7809 44.3768 17.7303C44.3705 17.6798 44.3679 17.6601 44.3616 17.6256C44.354 17.5701 44.3438 17.5135 44.3337 17.4568L44.3185 17.3705C44.3033 17.2855 44.2856 17.2004 44.2666 17.1167C44.3629 17.1512 44.4604 17.182 44.5593 17.2115C44.9293 17.3224 45.3081 17.4087 45.6768 17.5171C45.8036 17.5529 45.9163 17.5899 46.0329 17.6318C46.2251 17.6987 46.4111 17.7811 46.5892 17.8782V17.8782C46.7135 16.8241 46.6574 15.7573 46.4232 14.7211C46.4105 14.6656 46.3978 14.6114 46.3839 14.5559C46.2725 14.0987 46.1277 13.6499 45.9505 13.2127C45.834 12.9268 45.7047 12.6446 45.5603 12.3711C45.4336 12.1312 45.2963 11.8962 45.1485 11.6662C45.0743 11.5656 45.0194 11.4529 44.9863 11.3335C44.9825 11.3139 44.98 11.2942 44.9787 11.2743C44.9774 11.2542 44.9774 11.234 44.9787 11.2139C44.9856 11.1623 45.0019 11.1122 45.0268 11.0661C45.0891 10.9634 45.1683 10.8714 45.2612 10.7937C45.4982 10.5768 45.7389 10.3501 45.9696 10.1135C46.0418 10.0396 46.1115 9.96562 46.1812 9.89045C46.2876 9.76722 46.3915 9.65508 46.4903 9.53431C46.8221 9.1435 47.0854 8.70217 47.2696 8.22807C47.3236 8.08236 47.366 7.93281 47.3963 7.78075C47.4103 7.70681 47.4217 7.63287 47.4305 7.5577C47.4407 7.46396 47.4458 7.36977 47.4457 7.2755C47.4457 7.22991 47.4457 7.18431 47.4457 7.13995C47.1363 7.34693 46.8013 7.51503 46.4485 7.64027C45.9787 7.81347 45.4842 7.9153 44.9825 7.94218C44.8558 7.94218 44.729 7.94957 44.6023 7.94218C44.1954 7.9328 43.7912 7.87528 43.3986 7.77089C43.1824 7.71537 42.9706 7.64453 42.765 7.55893C42.5337 7.46278 42.3112 7.34777 42.0998 7.21512C41.9946 7.14981 41.892 7.07834 41.7919 7.00317C41.7413 6.9667 41.6946 6.92542 41.6525 6.87994C41.61 6.83727 41.5787 6.78528 41.5613 6.72836C41.5534 6.68252 41.5549 6.6356 41.5658 6.59033C41.5766 6.54506 41.5966 6.50234 41.6246 6.46465C41.6384 6.44392 41.6536 6.42416 41.6702 6.4055C41.7192 6.34818 41.774 6.29575 41.8337 6.249C42.1036 6.02965 42.5636 6.09003 42.8626 5.91012C42.7815 5.82632 42.6979 5.74376 42.6092 5.66366C42.542 5.60204 42.4749 5.54043 42.4064 5.48004L42.3557 5.43322C42.1847 5.28411 42.0073 5.13993 41.8261 5.00314C38.1109 5.26814 34.5126 6.38283 31.3243 8.25642C32.9161 7.98699 34.5434 7.98241 36.1368 8.24286V8.24286Z" fill="#683531"/>
<path d="M26.6626 37.9376C26.6714 37.9265 26.679 37.9154 26.6879 37.9055C26.679 37.9154 26.6714 37.9265 26.6626 37.9376Z" fill="#442521"/>
<path d="M27.2746 37.3554L27.2928 37.3448L27.2746 37.3554Z" fill="#442521"/>
<path d="M27.0706 37.5075L27.101 37.4828L27.0706 37.5075Z" fill="#442521"/>
<path d="M26.8159 37.752L26.8304 37.7355L26.8159 37.752Z" fill="#442521"/>
<path d="M27.3696 37.3005L27.4013 37.2832L27.3696 37.3005Z" fill="#442521"/>
<path d="M26.7361 37.8476L26.7601 37.818L26.7361 37.8476Z" fill="#442521"/>
<path d="M26.5979 38.0275L26.6182 37.998L26.5979 38.0275Z" fill="#442521"/>
<path d="M26.9895 37.5851C26.9986 37.5755 27.0083 37.5664 27.0186 37.558C27.0083 37.5664 26.9986 37.5755 26.9895 37.5851V37.5851Z" fill="#442521"/>
<path d="M26.9071 37.6557L26.9289 37.6344L26.9071 37.6557Z" fill="#442521"/>
<path d="M27.1631 37.4341C27.1702 37.4279 27.1779 37.4224 27.1861 37.4175C27.1779 37.4224 27.1702 37.4279 27.1631 37.4341Z" fill="#442521"/>
<path d="M28.9788 37.3756L29.0092 37.3991L28.9788 37.3756Z" fill="#442521"/>
<path d="M29.2006 37.5765L29.231 37.6098L29.2006 37.5765Z" fill="#442521"/>
<path d="M28.8737 37.3005L28.9092 37.3251L28.8737 37.3005Z" fill="#442521"/>
<path d="M28.6696 37.1896L28.6878 37.1978L28.6696 37.1896Z" fill="#442521"/>
<path d="M28.771 37.2401L28.8053 37.2586L28.771 37.2401Z" fill="#442521"/>
<path d="M29.2842 37.6726L29.3184 37.717L29.2842 37.6726Z" fill="#442521"/>
<path d="M29.4249 37.8735C29.4363 37.8944 29.4489 37.9154 29.4616 37.9363C29.4489 37.9154 29.4363 37.8944 29.4249 37.8735Z" fill="#442521"/>
<path d="M28.5392 37.1403L28.5658 37.1485L28.5392 37.1403Z" fill="#442521"/>
<path d="M29.4781 37.9684C29.5267 38.0613 29.569 38.1572 29.6048 38.2555C29.5288 38.3063 29.4501 38.3532 29.3691 38.396C28.7964 38.6905 28.102 38.6018 27.4684 38.5057C27.1821 38.4638 26.8805 38.4145 26.6537 38.2383C26.6092 38.2025 26.57 38.1611 26.5371 38.115V38.115C26.4097 38.3128 26.3112 38.5268 26.2444 38.7509C25.9738 39.7011 25.8929 40.6929 26.0062 41.6727C26.0619 42.1656 26.1836 42.6819 26.513 43.0541C26.4777 43.0148 26.4447 42.9737 26.4142 42.9309C26.3115 42.3845 26.3306 41.8231 26.47 41.2845C26.5358 41.038 26.6347 40.7793 26.8577 40.6252C26.9609 40.552 27.0875 40.5166 27.215 40.5254C27.4836 40.5476 27.5952 40.7608 27.6877 40.9579C27.841 41.2746 27.993 41.5926 28.1463 41.9093C28.2267 41.4122 28.4804 40.9571 28.8648 40.6203C28.9316 40.5628 29.0124 40.5228 29.0995 40.504C29.1866 40.4852 29.2772 40.4883 29.3627 40.5129C29.4483 40.5376 29.5259 40.583 29.5885 40.6449C29.651 40.7068 29.6963 40.7831 29.7201 40.8668C29.8414 41.315 29.8792 41.7808 29.8316 42.242C29.7804 42.719 29.6845 43.1905 29.5452 43.6505C29.6166 43.6072 29.6817 43.555 29.7391 43.4952C30.0356 43.1798 30.0508 42.7078 30.0419 42.2802C30.0217 41.3535 29.9697 40.4244 29.8671 39.5038C29.8075 38.9887 29.7277 38.4317 29.4781 37.9684Z" fill="#442521"/>
<path d="M29.359 37.7724C29.3704 37.7897 29.3831 37.8069 29.3945 37.8254C29.3831 37.8069 29.3704 37.7897 29.359 37.7724Z" fill="#442521"/>
<path d="M27.4583 37.25L27.4925 37.2327L27.4583 37.25Z" fill="#442521"/>
<path d="M27.8764 37.1008L27.9119 37.0947L27.8764 37.1008Z" fill="#442521"/>
<path d="M27.7814 37.1242L27.8131 37.1169L27.7814 37.1242Z" fill="#442521"/>
<path d="M28.4289 37.1082L28.4644 37.1168L28.4289 37.1082Z" fill="#442521"/>
<path d="M27.5571 37.2031L27.5876 37.1896L27.5571 37.2031Z" fill="#442521"/>
<path d="M28.5265 43.8021C28.6527 43.8157 28.7797 43.8202 28.9066 43.8156C28.7797 43.8202 28.6527 43.8157 28.5265 43.8021V43.8021Z" fill="#442521"/>
<path d="M26.6322 43.181C26.9996 43.51 27.5191 43.6222 28.0057 43.7207C27.5153 43.6234 26.9996 43.51 26.6322 43.181Z" fill="#442521"/>
<path d="M29.0992 43.7971C29.0701 43.7971 29.0397 43.8058 29.0105 43.8082C29.0397 43.8058 29.0701 43.8021 29.0992 43.7971Z" fill="#442521"/>
<path d="M29.5427 43.6443C29.4097 43.7225 29.2619 43.774 29.1081 43.7959C29.2619 43.774 29.4097 43.7225 29.5427 43.6443Z" fill="#442521"/>
<path d="M28.4948 43.7996L28.4264 43.791L28.4948 43.7996Z" fill="#442521"/>
<path d="M28.2693 43.7688L28.2148 43.7602L28.2693 43.7688Z" fill="#442521"/>
<path d="M28.1514 43.7466L28.1096 43.738L28.1514 43.7466Z" fill="#442521"/>
<path d="M29.0004 43.8095L28.9092 43.8156L29.0004 43.8095Z" fill="#442521"/>
<path d="M28.3833 43.7861L28.3212 43.7774L28.3833 43.7861Z" fill="#442521"/>
<path d="M29.7176 40.8606C29.6937 40.7769 29.6485 40.7006 29.5859 40.6387C29.5234 40.5768 29.4457 40.5314 29.3602 40.5067C29.2746 40.4821 29.184 40.479 29.0969 40.4978C29.0098 40.5166 28.9291 40.5566 28.8623 40.6141C28.4778 40.9509 28.2242 41.406 28.1438 41.9031C27.9905 41.5864 27.8384 41.2685 27.6851 40.9518C27.5901 40.7546 27.4811 40.5414 27.2125 40.5192C27.085 40.5104 26.9584 40.5458 26.8552 40.619C26.6322 40.7731 26.5333 41.0282 26.4674 41.2783C26.328 41.8169 26.309 42.3783 26.4117 42.9247C26.4422 42.9675 26.4752 43.0087 26.5105 43.0479C26.5477 43.0916 26.5879 43.1328 26.6309 43.1711V43.1711C26.9983 43.5002 27.5179 43.6123 28.0044 43.7109L28.1071 43.7306L28.1489 43.7392L28.2122 43.7503L28.2667 43.7589L28.3187 43.7676L28.3808 43.7762H28.4238L28.4923 43.7848H28.5239C28.6501 43.7984 28.7772 43.803 28.9041 43.7984V43.7984L28.9953 43.7922H29.0169C29.046 43.7922 29.0764 43.786 29.1055 43.7811H29.1144C29.2682 43.7592 29.416 43.7077 29.549 43.6295C29.6883 43.1695 29.7842 42.698 29.8354 42.221C29.8791 41.7643 29.8392 41.3037 29.7176 40.8606V40.8606Z" fill="#F47C5D"/>
<path d="M26.6524 38.2383C26.8792 38.4145 27.1808 38.4638 27.4672 38.5057C28.1083 38.6018 28.8002 38.6905 29.3679 38.396C29.4489 38.3532 29.5275 38.3063 29.6035 38.2555C29.5678 38.1572 29.5255 38.0613 29.4768 37.9684C29.4768 37.9573 29.4654 37.9462 29.4604 37.9363C29.4553 37.9265 29.435 37.8944 29.4236 37.8735L29.397 37.8316C29.3856 37.8131 29.3729 37.7959 29.3615 37.7786L29.321 37.7232L29.2868 37.6788L29.2336 37.6159L29.2031 37.5827C29.1739 37.5504 29.1431 37.5195 29.1106 37.4902C29.079 37.4594 29.0448 37.4323 29.0118 37.4052L28.9814 37.3818L28.9117 37.3313L28.8762 37.3066L28.8078 37.2647L28.7736 37.2462L28.6912 37.2044L28.6722 37.1957C28.6389 37.1801 28.6046 37.1665 28.5696 37.1551L28.5417 37.1464L28.4669 37.123L28.4315 37.1144L28.363 37.1008H28.3263C28.3015 37.0971 28.2766 37.0946 28.2515 37.0934H28.2237C28.1907 37.0934 28.1565 37.0934 28.1223 37.0934H28.1033H28.0209H27.988L27.9195 37.1033L27.8841 37.1095L27.8156 37.1255L27.784 37.1329L27.6877 37.1612L27.5914 37.197L27.561 37.2105L27.4963 37.2401L27.4621 37.2573L27.4 37.2906L27.3684 37.3079C27.3443 37.3227 27.3202 37.3362 27.2974 37.3522L27.2784 37.3633C27.248 37.383 27.2188 37.4028 27.191 37.4249C27.1824 37.43 27.1744 37.4358 27.1669 37.4422L27.1048 37.4902L27.0744 37.5149L27.0199 37.5617C27.0096 37.5701 26.9998 37.5792 26.9907 37.5888C26.9708 37.6055 26.9518 37.6232 26.9337 37.6418L26.9109 37.664L26.8349 37.7429L26.8197 37.7601L26.7614 37.8254L26.7373 37.855C26.7221 37.8747 26.7056 37.8932 26.6917 37.9129C26.6778 37.9326 26.6752 37.9339 26.6664 37.945L26.622 38.0053L26.6017 38.0349C26.5815 38.0633 26.5612 38.0928 26.5422 38.1237C26.5738 38.1663 26.6108 38.2048 26.6524 38.2383V38.2383Z" fill="white"/>
</g>
<defs>
<clipPath id="clip0_5_6">
<rect width="56" height="57" fill="white"/>
</clipPath>
</defs>
</svg>
